<?xml version="1.0" encoding="UTF-8" standalone="no"?>
<svg
   id="svg"
   version="1.1"
   width="300"
   height="78"
   viewBox="0 0 300 78"
   sodipodi:docname="light-wide-1.svg"
   inkscape:version="1.1.2 (b8e25be833, 2022-02-05)"
   xmlns:inkscape="http://www.inkscape.org/namespaces/inkscape"
   xmlns:sodipodi="http://sodipodi.sourceforge.net/DTD/sodipodi-0.dtd"
   xmlns="http://www.w3.org/2000/svg"
   xmlns:svg="http://www.w3.org/2000/svg">
  <defs
     id="defs1044">
    <clipPath
       clipPathUnits="userSpaceOnUse"
       id="clipPath1751">
      <path
         style="fill:none;stroke:#000000;stroke-width:1.33495px;stroke-linecap:butt;stroke-linejoin:miter;stroke-opacity:1"
         d="M 98.528383,30.65334 96.086613,78.347463 213.90199,76.524757 230.07872,26.40036 Z"
         id="path1753" />
    </clipPath>
    <clipPath
       clipPathUnits="userSpaceOnUse"
       id="clipPath1785">
      <rect
         style="fill:#cbcbcb;stroke:#cbcbcb;stroke-width:3.47088"
         id="rect1787"
         width="99.807335"
         height="94.476891"
         x="-5.8239441"
         y="-3.7430198" />
    </clipPath>
    <clipPath
       clipPathUnits="userSpaceOnUse"
       id="clipPath1893">
      <rect
         style="fill:#cbcbcb;stroke:#cbcbcb;stroke-width:3.47088"
         id="rect1895"
         width="111.10051"
         height="95.388252"
         x="-9.486599"
         y="-7.6922145" />
    </clipPath>
    <clipPath
       clipPathUnits="userSpaceOnUse"
       id="clipPath2118">
      <path
         style="fill:none;stroke:#000000;stroke-width:1.05542px;stroke-linecap:butt;stroke-linejoin:miter;stroke-opacity:1"
         d="M 216.46777,68.430274 227.80933,26.640037 448.60783,4.7842275 451.02092,106.37773 208.74587,95.810079 218.66183,63.235112 Z"
         id="path2120" />
    </clipPath>
  </defs>
  <sodipodi:namedview
     id="namedview1042"
     pagecolor="#ffffff"
     bordercolor="#666666"
     borderopacity="1.0"
     inkscape:pageshadow="2"
     inkscape:pageopacity="0.0"
     inkscape:pagecheckerboard="true"
     showgrid="false"
     inkscape:zoom="4.384062"
     inkscape:cx="146.78168"
     inkscape:cy="33.530548"
     inkscape:window-width="2560"
     inkscape:window-height="1377"
     inkscape:window-x="-8"
     inkscape:window-y="-8"
     inkscape:window-maximized="1"
     inkscape:current-layer="svgg"
     units="mm" />
  <g
     id="svgg"
     transform="matrix(0.74732349,0,0,0.75085849,0.27148828,6.8646442)">
    <g
       id="g1749"
       transform="translate(0.85321036,4.3517268)"
       style="fill:#545454;fill-opacity:1">
      <path
         id="path1745"
         d="m 31.527,2.6362738 c -0.27,0.27 0.349,1.294 0.783,1.294 0.314,0 1.69,1.381 1.69,1.695 0,0.185 0.409,0.733 0.917,1.229 0.83,0.811 1.194,1.576 0.75,1.576 -0.092,0 -0.167,0.117 -0.167,0.26 0,0.143 -0.075,0.213 -0.167,0.157 -0.091,-0.057 -0.166,-0.036 -0.166,0.046 0,0.266 -0.839,0.542 -1.302,0.428 -0.74,-0.183 -6.021,-2.67 -6.205,-2.923 -0.049,-0.068 -0.424,-0.304 -0.833,-0.524 -0.409,-0.221 -1.006,-0.542 -1.327,-0.714 -0.321,-0.172 -0.621,-0.351 -0.667,-0.397 -0.045,-0.046 -0.288,-0.189 -0.539,-0.318 -0.25,-0.129 -0.604,-0.374 -0.787,-0.544 -0.394,-0.367 -1.178,-0.69 -1.322,-0.544 -0.157,0.158 -0.062,2.092 0.122,2.479 0.268,0.568 1.056,2.657 1.115,2.958 0.03,0.155 0.138,0.436 0.239,0.625 0.101,0.189 0.14,0.344 0.085,0.344 -0.054,0 0.258,0.4690002 0.695,1.0420002 0.78,1.024 1.532,1.791 1.756,1.791 0.258,0.001 1.961,1.787 2.131,2.236 0.334,0.882 -0.588,1.019 -3.477,0.518 -0.824,-0.143 -1.558,-0.243 -1.633,-0.221 -0.074,0.021 -0.303,-0.055 -0.51,-0.169 -0.206,-0.115 -0.375,-0.17 -0.375,-0.123 0,0.046 -0.206,0.005 -0.458,-0.093 -0.252,-0.097 -0.571,-0.203 -0.708,-0.235 -0.138,-0.032 -0.665,-0.208 -1.172,-0.391 -0.506,-0.182 -1.294,-0.375 -1.75,-0.428 -0.455,-0.053 -1.053,-0.142 -1.328,-0.198 -0.597,-0.12 -0.453,-0.121 -2.405,0.017 -0.865,0.062 -1.882,0.217 -2.262,0.346 -0.38,0.129 -0.835,0.257 -1.012,0.285 -0.177,0.027 -0.396,0.096 -0.488,0.153 -0.092,0.057 -0.429,0.146 -0.75,0.198 -1.043,0.168 -5.782,1.983 -6.006,2.3 -0.049,0.069 -0.358,0.238 -0.687,0.376 -0.636,0.266 -2.14,1.81 -2.14,2.198 0,0.127 -0.057,0.232 -0.125,0.232 -0.201,0 -1.042,1.598 -1.042,1.978 0,0.504 0.881,0.917 1.647,0.772 0.332,-0.063 1.176,-0.141 1.876,-0.174 1.025,-0.048 1.52,-0.174 2.544,-0.647 0.699,-0.323 1.288,-0.571 1.31,-0.553 0.022,0.019 0.225,-0.096 0.452,-0.254 0.54,-0.379 0.613,-0.369 1.097,0.154 0.418,0.45 2.082,1.13 2.238,0.914 0.18,-0.248 1.245,0.037 3.169,0.846 1.52,0.638 2.154,1.021 2.952,1.78 0.202,0.193 0.409,0.35 0.459,0.35 0.112,0 0.82,0.618 2.07,1.806 0.515,0.489 1.358,1.179 1.874,1.534 2.144,1.474 2.465,2.261 0.926,2.265 -0.475,0.001 -1.241,0.054 -1.701,0.116 -1.386,0.189 -4.824,-1.027 -6.08,-2.15 -0.541,-0.485 -1.646,-0.795 -1.946,-0.546 -0.65,0.539 -0.609,3.1 0.066,4.101 0.17,0.252 0.413,0.664 0.54,0.916 0.126,0.252 0.297,0.458 0.378,0.458 0.082,0 0.102,0.075 0.046,0.167 -0.057,0.092 -0.043,0.167 0.031,0.167 0.075,0 0.398,0.23 0.719,0.511 1.156,1.013 2.432,1.92 3.25,2.312 0.458,0.219 0.893,0.499 0.966,0.621 0.074,0.122 0.237,0.222 0.363,0.222 0.127,0 0.329,0.094 0.45,0.209 0.122,0.114 0.763,0.471 1.426,0.791 1.461,0.708 1.454,0.635 0.122,1.311 -1.801,0.916 -6.35,1.138 -8.256,0.404 -0.497,-0.192 -1.268,-0.443 -1.712,-0.558 -0.443,-0.115 -0.843,-0.305 -0.888,-0.422 -0.046,-0.118 -0.3,-0.262 -0.567,-0.321 -0.266,-0.058 -0.521,-0.166 -0.566,-0.239 -0.045,-0.073 -0.477,-0.328 -0.96,-0.566 -0.483,-0.239 -1.26,-0.726 -1.727,-1.083 -0.467,-0.356 -1.217,-0.86 -1.667,-1.12 -0.45,-0.26 -0.855,-0.514 -0.901,-0.564 -0.937,-1.027 -2.883,-0.814 -2.574,0.281 0.072,0.253 0.137,0.498 0.146,0.544 0.009,0.046 0.076,0.177 0.148,0.291 0.073,0.114 0.159,0.339 0.192,0.5 0.315,1.534 0.969,3.451 2.116,6.209 0.524,1.257 0.835,1.704 2.053,2.942 0.734,0.747 1.448,1.497 1.586,1.666 0.312,0.386 1.261,1.059 1.493,1.059 0.095,0 0.173,0.076 0.173,0.169 0,0.093 0.263,0.295 0.584,0.448 0.321,0.153 0.583,0.339 0.583,0.414 0,0.074 0.08,0.135 0.178,0.135 0.098,0 0.416,0.18 0.708,0.399 0.847,0.636 7.405,1.021 13.002,0.764 1.204,-0.056 1.845,0.436 1.845,1.415 0,1.122 -1.245,1.394 -5.742,1.253 -0.896,-0.028 -1.788,0.3 -2.411,0.886 -0.258,0.243 -0.914,0.757 -1.913,1.497 -0.851,0.631 -3.118,1.953 -3.348,1.953 -0.084,0 -0.152,0.075 -0.152,0.167 0,0.091 -0.113,0.166 -0.25,0.166 -0.138,0 -0.25,0.07 -0.25,0.156 0,0.085 -0.14,0.2 -0.312,0.254 -0.338,0.107 -2.188,1.783 -2.188,1.982 0,0.067 -0.079,0.213 -0.175,0.324 -0.725,0.836 -1.49,2.046 -1.482,2.343 0.037,1.329 1.495,3.342 1.787,2.466 0.109,-0.325 0.434,-0.216 0.87,0.292 0.834,0.973 1.96,0.592 2.058,-0.697 0.032,-0.42 0.169,-0.714 0.411,-0.884 0.199,-0.139 0.7,-0.587 1.113,-0.994 1.149,-1.132 1.966,-1.457 3.092,-1.228 0.5,0.101 1.074,0.208 1.275,0.236 0.202,0.029 1.346,0.472 2.543,0.985 1.198,0.512 2.222,0.932 2.277,0.932 0.055,0 0.383,0.225 0.731,0.5 0.347,0.275 0.687,0.5 0.757,0.5 0.11,0 0.923,0.768 4.165,3.931 0.461,0.451 1.064,1.081 1.34,1.402 1.242,1.446 1.973,1.076 1.876,-0.948 l -0.055,-1.135 0.473,0.033 c 0.261,0.019 0.641,0.215 0.847,0.437 0.205,0.221 1.023,0.724 1.818,1.118 1.229,0.609 1.445,0.778 1.445,1.125 0,0.348 -0.056,0.392 -0.375,0.293 -1.314,-0.407 -1.764,-0.309 -2.187,0.477 -0.33,0.612 -0.413,1.399 -0.166,1.578 0.08,0.058 0.362,0.424 0.626,0.814 0.265,0.39 0.546,0.708 0.627,0.708 0.269,0 3.391,1.38 3.448,1.524 0.03,0.079 0.128,0.143 0.217,0.143 0.23,0 1.999,1.225 2.378,1.646 0.174,0.195 0.399,0.354 0.5,0.355 0.1,0.001 0.38,0.104 0.622,0.23 0.712,0.372 1.988,0.734 3.06,0.869 0.55,0.069 1.038,0.137 1.084,0.151 0.045,0.015 0.308,0.087 0.583,0.162 0.275,0.075 1.137,0.396 1.917,0.713 0.779,0.317 1.716,0.609 2.083,0.647 0.367,0.039 0.929,0.117 1.25,0.174 0.321,0.057 0.808,0.125 1.083,0.151 0.275,0.027 1.175,0.21 2,0.407 0.825,0.197 1.65,0.385 1.834,0.418 0.183,0.032 0.521,0.103 0.75,0.157 0.437,0.104 2.888,0.103 4.166,0 0.617,-0.05 6.321,-0.078 7.834,-0.039 0.229,0.006 0.754,-0.036 1.166,-0.094 0.413,-0.058 1.144,-0.144 1.625,-0.191 0.481,-0.047 1.315,-0.234 1.853,-0.415 0.749,-0.252 1.107,-0.293 1.522,-0.174 0.671,0.192 0.994,0.034 2.209,-1.084 0.498,-0.458 1.458,-1.321 2.132,-1.916 0.675,-0.596 1.654,-1.518 2.176,-2.049 l 0.948,-0.965 -0.003,-1.118 c -0.003,-1.297 0.111,-2.208 0.332,-2.644 0.193,-0.382 0.76,-2.718 0.742,-3.058 -0.007,-0.137 0.059,-0.587 0.147,-1 0.149,-0.695 -0.003,-3.715 -0.231,-4.583 -0.048,-0.183 -0.142,-0.558 -0.209,-0.833 -0.067,-0.275 -0.176,-0.575 -0.241,-0.667 -0.066,-0.092 -0.222,-0.523 -0.347,-0.958 -0.125,-0.436 -0.286,-0.792 -0.358,-0.792 -0.071,0 -0.13,-0.133 -0.13,-0.295 0,-0.163 -0.244,-0.674 -0.542,-1.136 -0.298,-0.462 -0.675,-1.1 -0.839,-1.417 -0.164,-0.317 -0.52,-0.815 -0.792,-1.105 -0.271,-0.291 -0.494,-0.57 -0.494,-0.619 0,-0.093 -2.231,-2.472 -2.643,-2.82 -0.125,-0.105 -0.522,-0.473 -0.882,-0.816 -0.36,-0.344 -0.714,-0.625 -0.787,-0.625 -0.073,0 -0.351,-0.231 -0.618,-0.514 -0.268,-0.282 -0.618,-0.636 -0.778,-0.787 -0.724,-0.679 0.012,-1.44 1.542,-1.594 1,-0.1 3.224,-0.928 4.492,-1.671 0.564,-0.331 1.082,-0.601 1.152,-0.601 0.069,0 0.272,-0.131 0.449,-0.292 0.178,-0.16 0.765,-0.591 1.305,-0.958 0.539,-0.367 1.233,-0.967 1.542,-1.333 1.433,-1.704 1.861,-2.324 2.221,-3.212 0.213,-0.525 0.534,-1.287 0.714,-1.694 0.18,-0.406 0.36,-0.931 0.399,-1.166 0.356,-2.131 0.396,-5.523 0.078,-6.561 -0.343,-1.117 -0.582,-2.052 -0.646,-2.534 -0.037,-0.275 -0.126,-0.575 -0.196,-0.666 -0.071,-0.092 -0.337,-0.72 -0.592,-1.396 -1.022,-2.713 -4.624,-7.103 -6.781,-8.266 -0.488,-0.264 -0.925,-0.529 -0.971,-0.59 -0.046,-0.061 -0.458,-0.327 -0.916,-0.591 -0.459,-0.264 -0.927,-0.57 -1.041,-0.681 -0.257,-0.249 -3.275,-1.727 -3.526,-1.727 -0.101,0 -0.183,-0.075 -0.183,-0.166 0,-0.092 -0.094,-0.168 -0.209,-0.169 -0.114,-10e-4 -0.651,-0.227 -1.192,-0.501 -0.542,-0.275 -1.329,-0.605 -1.75,-0.734 -0.421,-0.129 -1.511,-0.468 -2.421,-0.752 -0.91,-0.284 -1.848,-0.552 -2.083,-0.596 -0.5,-0.091 -1.058,-0.216 -1.47,-0.327 -0.161,-0.044 -0.959,-0.234 -1.774,-0.423 -0.816,-0.189 -1.678,-0.478 -1.917,-0.644 -0.239,-0.165 -0.547,-0.35 -0.684,-0.412 -0.138,-0.062 -0.493,-0.2590002 -0.79,-0.4390002 -0.477,-0.289 -0.701,-0.313 -1.897,-0.197 -1.242,0.12 -2.375,-0.008 -2.897,-0.327 -0.147,-0.09 -1.027,-0.299 -1.75,-0.415 -0.274,-0.045 -0.814,-0.162 -1.583,-0.344 -0.275,-0.065 -0.538,-0.124 -0.583,-0.13 -0.046,-0.007 -0.178,-0.072 -0.292,-0.145 -0.115,-0.073 -0.678,-0.169 -1.25,-0.214 -0.573,-0.045 -1.267,-0.148 -1.542,-0.228 -0.275,-0.08 -1.137,-0.192 -1.916,-0.249 -3.471,-0.254 -4.226,-0.39 -5.566,-1.003 -0.829,-0.379 -2.276,-1.426 -3.072,-2.222 -0.155,-0.156 -0.619,-0.385 -1.031,-0.509 -0.411,-0.125 -1.098,-0.367 -1.527,-0.539 -0.428,-0.172 -0.953,-0.345 -1.166,-0.385 -0.214,-0.039 -0.388,-0.084 -0.388,-0.099 0,-0.126 -1.761,-0.087 -1.89,0.042 m 15.64,11.0110002 c 0.453,0.141 1.639,0.246 3,0.266 2.336,0.035 3.27,0.224 3.418,0.69 0.082,0.258 0.49,0.522 1.104,0.716 0.43,0.135 0.407,2.68 -0.04,4.278 -0.192,0.687 -0.384,1.512 -0.426,1.833 -0.042,0.321 -0.139,0.733 -0.214,0.917 -0.112,0.271 -0.409,1.328 -1.124,4 -0.024,0.091 -0.12,0.541 -0.213,1 -0.176,0.867 -0.522,1.817 -0.971,2.661 -0.931,1.752 0.322,5.456 1.613,4.766 0.148,-0.08 0.307,-0.141 0.353,-0.136 0.201,0.019 0.833,-0.241 0.836,-0.344 10e-4,-0.063 0.235,-0.376 0.519,-0.697 0.284,-0.321 0.693,-0.959 0.91,-1.417 0.217,-0.458 0.771,-1.396 1.231,-2.083 0.46,-0.688 0.907,-1.412 0.993,-1.609 0.086,-0.197 0.23,-0.404 0.319,-0.459 0.132,-0.082 1.435,-1.972 3.722,-5.398 0.154,-0.231 0.701,-0.84 1.214,-1.352 0.514,-0.513 1.191,-1.23 1.506,-1.593 l 0.571,-0.661 0.499,0.369 c 0.275,0.203 0.562,0.369 0.639,0.369 0.077,0 0.286,0.115 0.465,0.256 0.605,0.474 2.104,1.411 2.257,1.411 0.084,0 0.152,0.075 0.152,0.167 0,0.091 0.098,0.166 0.219,0.166 0.12,0 0.364,0.136 0.541,0.301 0.382,0.355 2.38,1.696 2.543,1.707 0.063,0.004 0.264,0.197 0.447,0.428 0.183,0.232 0.572,0.697 0.864,1.034 0.399,0.461 0.528,0.768 0.522,1.238 -0.009,0.679 0.194,1.065 1.031,1.959 0.939,1.003 1.296,1.558 1.501,2.333 0.202,0.767 0.72,1.994 1.407,3.338 0.698,1.365 0.14,3.209 -1.557,5.146 -0.193,0.22 -0.351,0.506 -0.351,0.635 0,0.129 -0.075,0.188 -0.167,0.131 -0.092,-0.056 -0.167,-0.032 -0.167,0.055 0,0.087 -0.506,0.295 -1.125,0.461 -0.618,0.167 -1.274,0.442 -1.457,0.611 -0.188,0.174 -0.473,0.271 -0.655,0.223 -0.177,-0.046 -1.416,0.173 -2.753,0.487 -2.33,0.547 -8.279,0.782 -8.972,0.353 -0.08,-0.049 -0.806,-0.132 -1.612,-0.184 -0.807,-0.052 -1.534,-0.136 -1.616,-0.187 -0.082,-0.05 -0.354,-0.129 -0.604,-0.174 -0.251,-0.046 -1.056,-0.194 -1.789,-0.329 -4.57,-0.843 -4.691,-0.858 -5.667,-0.732 -0.183,0.024 -0.974,-0.055 -1.758,-0.174 -1.257,-0.191 -1.489,-0.186 -1.957,0.048 -0.292,0.146 -0.757,0.315 -1.033,0.375 -0.276,0.061 -0.502,0.176 -0.502,0.256 0,0.219 -1.107,0.393 -2.377,0.374 -1.15,-0.017 -1.533,0.197 -1.335,0.749 0.117,0.327 0.967,0.705 1.584,0.705 1.274,0 1.408,0.437 0.62,2.021 -0.074,0.149 -0.154,1.045 -0.178,1.992 -0.035,1.435 -0.185,2.572 -0.721,5.487 -0.026,0.137 -0.086,0.362 -0.135,0.5 -0.27,0.763 -0.791,2.533 -0.791,2.687 0,0.098 -0.104,0.416 -0.23,0.704 -0.709,1.617 -0.72,3.56 -0.029,4.925 0.226,0.447 0.447,1.214 0.491,1.706 0.16,1.798 0.552,2.645 1.223,2.645 0.495,0 1.328,-0.714 1.542,-1.321 0.501,-1.422 2.346,-5.142 2.949,-5.945 0.213,-0.284 0.387,-0.568 0.387,-0.632 0,-0.064 0.15,-0.277 0.333,-0.473 0.183,-0.196 0.6,-0.906 0.927,-1.577 0.327,-0.67 0.665,-1.219 0.751,-1.219 0.086,0 0.156,-0.071 0.156,-0.158 0,-0.735 2.03,-4.175 2.464,-4.175 0.111,0 0.203,-0.067 0.203,-0.149 0,-0.136 0.371,-0.27 1.25,-0.451 0.761,-0.158 4.329,-0.187 4.811,-0.04 0.287,0.087 0.71,0.194 0.939,0.237 0.229,0.043 0.604,0.151 0.833,0.24 0.229,0.09 0.754,0.233 1.167,0.319 0.412,0.086 1.087,0.243 1.5,0.349 0.412,0.106 0.825,0.209 0.916,0.23 0.551,0.124 1.917,0.697 1.917,0.804 0,0.07 0.082,0.127 0.183,0.127 0.255,0 1.378,0.534 1.503,0.715 0.112,0.163 0.355,0.313 1.587,0.978 1.975,1.066 6.015,5.768 6.319,7.352 0.574,3.003 0.629,3.671 0.648,7.872 0.01,2.181 -0.197,3.111 -0.816,3.663 -0.106,0.093 -0.423,0.382 -0.705,0.641 -0.331,0.304 -0.742,0.492 -1.158,0.531 -1.867,0.174 -3.998,1.093 -3.803,1.639 0.082,0.229 -0.964,0.739 -1.771,0.865 -0.314,0.048 -0.833,0.137 -1.154,0.196 -1.428,0.263 -4.666,-0.05 -4.666,-0.451 0,-0.079 0.693,-0.1 1.541,-0.048 0.848,0.051 2.202,0.101 3.008,0.111 l 1.465,0.017 0.66,-0.714 c 0.769,-0.833 0.772,-0.854 0.293,-1.812 -0.357,-0.715 -0.381,-0.73 -1.041,-0.646 -3.595,0.456 -10.921,0.665 -12.502,0.356 -0.729,-0.143 -1.569,-0.217 -3.924,-0.345 -2.374,-0.13 -2.741,-0.206 -4.43,-0.925 -0.854,-0.364 -1.657,-0.661 -1.784,-0.661 -0.126,0 -0.895,-0.337 -1.709,-0.749 -0.813,-0.411 -1.726,-0.829 -2.028,-0.929 -0.302,-0.1 -0.549,-0.245 -0.549,-0.322 0,-0.078 -0.282,-0.233 -0.625,-0.344 -0.344,-0.112 -0.685,-0.305 -0.759,-0.43 -0.073,-0.124 -0.21,-0.226 -0.303,-0.226 -0.094,0 -0.283,-0.113 -0.42,-0.25 -0.559,-0.559 -1.46,0.503 -1.06,1.249 0.149,0.279 0.121,0.288 -0.357,0.11 -0.843,-0.313 -1.888,-1.351 -3.455,-3.432 -2.678,-3.557 -3.43,-4.393 -4.429,-4.915 -0.509,-0.267 -0.926,-0.547 -0.926,-0.623 0,-0.077 -0.112,-0.139 -0.25,-0.139 -0.346,0 -0.314,-0.325 0.042,-0.432 0.554,-0.166 1.959,-0.958 2.092,-1.18 0.073,-0.122 0.242,-0.222 0.375,-0.222 0.133,0 0.241,-0.112 0.241,-0.25 0,-0.137 0.06,-0.25 0.132,-0.25 0.221,0 1.368,-1.151 1.369,-1.374 10e-4,-0.115 0.12,-0.434 0.264,-0.709 1,-1.9 0.976,-3.944 -0.075,-6.32 -0.196,-0.443 -0.356,-0.836 -0.356,-0.872 0,-0.121 0.807,-0.376 1.45,-0.457 0.858,-0.11 2.586,-0.725 2.747,-0.979 0.198,-0.311 0.162,-0.622 -0.072,-0.623 -0.115,-10e-4 -0.434,-0.121 -0.709,-0.267 -0.644,-0.342 -2.026,-0.768 -2.666,-0.821 -0.275,-0.023 -0.95,-0.12 -1.5,-0.216 -0.55,-0.096 -1.338,-0.187 -1.75,-0.202 -2.06,-0.076 -3.699,-0.052 -4.792,0.071 -1.429,0.16 -1.488,0.084 -0.375,-0.481 0.458,-0.232 0.833,-0.488 0.833,-0.57 0,-0.081 0.207,-0.221 0.459,-0.312 0.252,-0.091 0.611,-0.304 0.798,-0.475 0.187,-0.17 0.412,-0.328 0.5,-0.35 0.088,-0.022 0.598,-0.194 1.132,-0.382 0.918,-0.322 3.697,-0.5 4.082,-0.262 0.075,0.046 0.343,0.121 0.595,0.167 0.832,0.151 1.676,0.479 2.184,0.849 1.659,1.207 4.084,1.305 4.084,0.164 0,-0.226 -0.075,-0.412 -0.167,-0.412 -0.092,0 -0.167,-0.113 -0.167,-0.25 0,-0.138 -0.078,-0.25 -0.173,-0.25 -0.393,0 -0.844,-0.623 -0.743,-1.026 0.111,-0.442 -0.235,-0.65 -2.215,-1.331 -2.047,-0.705 -3.465,-1.373 -4.634,-2.186 -1.134,-0.789 -1.451,-1.263 -0.716,-1.07 0.173,0.045 0.354,0.017 0.403,-0.062 0.049,-0.079 0.199,-0.101 0.334,-0.05 0.135,0.052 0.545,-0.026 0.911,-0.172 0.367,-0.147 0.667,-0.226 0.667,-0.176 0,0.051 0.225,-0.041 0.5,-0.204 0.275,-0.162 0.5,-0.345 0.5,-0.405 0,-0.061 0.227,-0.205 0.504,-0.32 0.277,-0.115 0.664,-0.443 0.86,-0.728 0.73,-1.068 2.332,-2.664 3.136,-3.124 0.32,-0.184 0.823,-0.649 1.116,-1.032 0.293,-0.384 0.752,-0.935 1.02,-1.226 1.652,-1.792 -1.066,-2.625 -3.977,-1.219 -0.251,0.121 -3.155,-0.746 -3.326,-0.993 -0.046,-0.067 -0.796,-0.439 -1.667,-0.828 -0.871,-0.39 -1.733,-0.777 -1.916,-0.863 -0.49,-0.227 -3.105,-1.163 -3.545,-1.268 l -0.377,-0.09 0.362,-0.314 c 0.566,-0.491 1.572,-0.692 3.56,-0.712 1.008,-0.01 1.87,-0.056 1.916,-0.103 0.046,-0.046 0.395,-0.286 0.775,-0.533 1.665,-1.078 2.818,-3.592 2.33,-5.077 -0.065,-0.199 -0.15,-0.525 -0.189,-0.726 -0.038,-0.2 -0.243,-0.6 -0.455,-0.888 -0.926,-1.262 -1.078,-2.141 -0.294,-1.697 0.907,0.514 1.448,0.698 2.167,0.738 0.412,0.022 0.997,0.064 1.299,0.093 0.78,0.075 1.902,-0.225 2.227,-0.594 0.153,-0.173 0.355,-0.314 0.45,-0.314 0.096,0 0.234,-0.105 0.307,-0.234 0.263,-0.462 5.268,-0.498 6.717,-0.049 m 64.356,24.741 c -0.29,0.861 -2.154,6.15 -3.187,9.042 -0.344,0.962 -0.902,2.538 -1.241,3.5 -0.583,1.66 -0.963,2.739 -2.365,6.708 -0.332,0.94 -0.827,2.346 -1.1,3.125 -0.274,0.779 -0.562,1.567 -0.64,1.75 -0.078,0.184 -0.337,0.934 -0.576,1.667 -0.239,0.733 -0.502,1.483 -0.585,1.667 -0.212,0.469 -0.829,2.295 -0.829,2.452 0,0.204 17.53,0.16 18.814,-0.047 7.09,-1.143 10.523,-3.614 12.604,-9.072 1.095,-2.874 0.426,-5.545 -1.669,-6.659 -0.669,-0.355 -0.742,-0.439 -0.474,-0.547 1.129,-0.455 3.712,-2.7 4.587,-3.986 0.546,-0.804 1.305,-2.366 1.305,-2.687 0,-0.167 0.086,-0.391 0.192,-0.496 0.336,-0.337 0.265,-3.03 -0.098,-3.708 -1.525,-2.851 -3.871,-3.334 -16.188,-3.334 h -8.339 l -0.211,0.625 m 33.058,-0.25 c -0.06,0.207 -0.321,0.975 -0.58,1.709 -0.259,0.733 -0.748,2.12 -1.086,3.083 -0.338,0.962 -0.675,1.9 -0.748,2.083 -0.275,0.691 -1.168,3.196 -1.397,3.917 -0.131,0.413 -0.59,1.725 -1.02,2.917 -2.715,7.519 -3.118,10.768 -1.676,13.506 1.449,2.752 5.654,4.127 11.759,3.847 6.749,-0.31 11.952,-2.847 14.917,-7.274 0.275,-0.41 0.584,-0.835 0.686,-0.944 0.28,-0.298 1.654,-3.007 2.055,-4.052 0.193,-0.504 0.418,-1.067 0.499,-1.25 0.082,-0.183 0.35,-0.933 0.596,-1.667 0.247,-0.733 0.508,-1.483 0.581,-1.666 0.141,-0.355 1.066,-2.955 1.838,-5.167 1.155,-3.313 1.706,-4.858 1.84,-5.167 0.08,-0.183 0.342,-0.933 0.583,-1.666 0.241,-0.734 0.543,-1.57 0.671,-1.859 0.129,-0.289 0.234,-0.57 0.234,-0.625 0,-0.055 -2.306,-0.099 -5.125,-0.099 h -5.125 l -0.444,1.292 c -0.809,2.351 -2.087,5.95 -2.281,6.427 -0.105,0.258 -0.191,0.516 -0.191,0.574 0,0.059 -0.219,0.71 -0.485,1.448 -0.267,0.738 -0.762,2.129 -1.1,3.092 -0.338,0.962 -0.675,1.9 -0.749,2.083 -0.074,0.183 -0.3,0.821 -0.502,1.417 -0.203,0.595 -0.465,1.308 -0.581,1.583 -0.117,0.275 -0.267,0.688 -0.332,0.917 -0.846,2.956 -3.28,4.892 -6.168,4.907 -3.26,0.018 -4.103,-1.267 -3.013,-4.592 0.621,-1.898 1.928,-5.693 2.088,-6.065 0.078,-0.184 0.307,-0.821 0.508,-1.417 0.202,-0.596 0.432,-1.233 0.512,-1.417 0.08,-0.183 0.341,-0.933 0.58,-1.666 0.239,-0.734 0.501,-1.484 0.583,-1.667 0.156,-0.353 0.872,-2.383 1.233,-3.5 0.118,-0.367 0.413,-1.182 0.654,-1.812 0.241,-0.629 0.438,-1.248 0.438,-1.375 0,-0.19 -0.869,-0.23 -5.072,-0.23 h -5.072 l -0.108,0.375 m 34.942,1.167 c -0.645,1.803 -1.57,4.422 -2.104,5.958 -0.969,2.787 -1.795,5.114 -1.925,5.417 -0.078,0.183 -0.478,1.308 -0.889,2.5 -0.41,1.192 -1.097,3.142 -1.525,4.333 -0.429,1.192 -0.886,2.504 -1.017,2.917 -0.13,0.413 -0.458,1.35 -0.727,2.083 -1.09,2.969 -2.003,5.588 -2.003,5.748 0,0.301 17.088,0.222 19.179,-0.09 5.702,-0.848 9.414,-3.138 11.376,-7.016 2.017,-3.987 1.712,-7.295 -0.795,-8.628 l -0.755,-0.401 0.789,-0.458 c 5.071,-2.94 7.442,-9.128 4.511,-11.768 -2.038,-1.835 -4.183,-2.137 -15.214,-2.137 h -8.35 l -0.551,1.542 m 33.408,-0.75 c -0.203,0.643 -1.052,3.07 -1.473,4.208 -0.051,0.138 -0.367,1.038 -0.702,2 -0.335,0.963 -0.877,2.5 -1.203,3.417 -0.789,2.219 -1.406,3.967 -2.145,6.083 -0.336,0.963 -0.894,2.538 -1.239,3.5 -0.346,0.963 -0.832,2.35 -1.08,3.084 -0.248,0.733 -0.521,1.483 -0.606,1.666 -0.085,0.184 -0.222,0.559 -0.305,0.834 -0.083,0.275 -0.494,1.466 -0.914,2.648 -0.42,1.182 -0.764,2.213 -0.764,2.292 0,0.079 2.277,0.143 5.061,0.143 h 5.061 l 0.453,-1.292 c 0.25,-0.71 0.516,-1.441 0.592,-1.625 0.076,-0.183 0.339,-0.933 0.586,-1.666 0.246,-0.734 0.508,-1.484 0.581,-1.667 0.143,-0.358 0.937,-2.595 1.924,-5.417 1.113,-3.181 1.608,-4.579 1.742,-4.916 0.073,-0.184 0.334,-0.934 0.58,-1.667 0.247,-0.733 0.509,-1.483 0.584,-1.667 0.135,-0.332 0.589,-1.612 1.744,-4.916 0.337,-0.963 0.868,-2.463 1.181,-3.334 0.313,-0.871 0.616,-1.789 0.675,-2.041 l 0.105,-0.459 h -5.094 -5.095 l -0.249,0.792 m -87.956,6.717 c 1.314,0.303 1.511,0.952 0.752,2.474 -0.869,1.744 -2.021,2.184 -5.724,2.184 h -2.313 l 0.142,-0.458 c 0.079,-0.252 0.448,-1.32 0.822,-2.372 0.374,-1.052 0.679,-1.933 0.679,-1.958 0,-0.129 5.021,-0.013 5.642,0.13 m 68.325,-0.022 c 2.125,0.411 1,3.682 -1.524,4.432 -0.701,0.208 -5.778,0.389 -5.775,0.206 0.001,-0.064 0.761,-2.152 0.975,-2.677 0.105,-0.258 0.191,-0.518 0.191,-0.578 0,-0.06 0.122,-0.43 0.272,-0.822 l 0.273,-0.714 2.436,0.007 c 1.339,0.004 2.758,0.07 3.152,0.146 m -71.216,10.771 c 2.117,0.615 1.472,3.465 -1.048,4.629 -0.82,0.379 -7.206,0.675 -7.2,0.334 0.002,-0.149 0.882,-2.718 1.02,-2.978 0.046,-0.088 0.229,-0.628 0.406,-1.201 l 0.321,-1.042 h 2.808 c 2.038,0 3.05,0.071 3.693,0.258 m 68.665,0.159 c 1.627,0.814 0.832,3.45 -1.339,4.443 -0.858,0.392 -7.249,0.711 -7.24,0.361 0.006,-0.22 1.458,-4.404 1.566,-4.512 0.053,-0.054 0.097,-0.24 0.097,-0.413 0,-0.486 5.91,-0.383 6.916,0.121 m -137.9,6.22 c -0.1,0.188 -0.182,0.619 -0.182,0.957 0,0.44 -0.169,0.851 -0.588,1.434 -0.71,0.989 -0.955,2.199 -0.511,2.524 0.241,0.176 0.272,0.448 0.211,1.879 -0.115,2.72 1.427,3.351 1.618,0.663 0.127,-1.774 0.559,-2.755 1.164,-2.644 1.499,0.274 3.592,0.065 4.147,-0.416 0.464,-0.4 0.359,-1.867 -0.133,-1.867 -0.531,0 -0.329,-0.273 0.227,-0.306 1.323,-0.077 1.121,2.583 -0.215,2.831 -0.83,0.154 -0.65,1.821 0.21,1.945 0.337,0.048 0.37,0.146 0.37,1.1 0,1.453 0.44,2.597 0.999,2.597 0.28,0 0.689,-1.401 0.647,-2.21 -0.084,-1.593 0.2,-1.856 2.187,-2.029 1.486,-0.13 1.5,-0.132 1.5,-0.289 0,-0.076 0.102,-0.139 0.226,-0.139 0.124,0 0.443,-0.205 0.708,-0.455 0.265,-0.25 0.702,-0.574 0.97,-0.721 0.268,-0.147 0.611,-0.498 0.763,-0.782 l 0.277,-0.516 0.22,1.107 c 0.22,1.104 0.534,1.929 1.676,4.401 0.425,0.92 1.407,0.732 1.943,-0.372 0.768,-1.585 1.214,-2.701 1.273,-3.184 0.038,-0.309 0.195,-0.899 0.348,-1.311 0.43,-1.154 0.487,-2.075 0.184,-2.988 -0.458,-1.376 -1.587,-1.218 -1.589,0.222 0,0.6 -0.289,1.454 -1.216,3.594 l -0.25,0.578 -0.192,-0.745 c -0.777,-3.014 -1.123,-3.482 -2.29,-3.098 -0.282,0.092 -0.428,0.025 -0.635,-0.291 -0.295,-0.45 -2.186,-1.295 -2.693,-1.204 -1.386,0.25 -1.948,0.266 -2.491,0.069 -0.57,-0.206 -0.617,-0.195 -0.998,0.249 l -0.401,0.466 v -0.406 c 0,-0.743 -0.282,-0.808 -3.896,-0.899 -3.306,-0.083 -3.41,-0.076 -3.588,0.256 m 10.815,3.351 c -0.012,0.445 -2.027,1.203 -2.247,0.846 -0.096,-0.155 0.079,-0.707 0.263,-0.834 0.171,-0.117 1.987,-0.128 1.984,-0.012"
         stroke="none"
         fill="#0ca4dc"
         fill-rule="evenodd"
         clip-path="url(#clipPath1785)"
         transform="matrix(0.99850552,-0.05439363,0.05490944,0.99850552,-1.4406795,3.3794771)"
         style="fill:#545454;fill-opacity:1" />
      <path
         id="path1747"
         d="m 315.818,37.100274 c -8.67,0.661 -16.793,7.394 -19.803,16.413 -2.741,8.216 -0.658,13.71 5.818,15.346 2.514,0.635 7.845,0.293 9.491,-0.609 0.143,-0.078 0.623,-0.3 1.067,-0.492 0.978,-0.425 2.388,-1.26 2.901,-1.718 0.459,-0.41 0.478,-0.242 0.125,1.113 -0.412,1.579 -0.676,1.457 3.031,1.406 l 3.282,-0.046 0.388,-1 c 0.214,-0.55 0.69,-1.9 1.059,-3 0.368,-1.1 0.735,-2.15 0.814,-2.333 0.078,-0.183 0.308,-0.821 0.509,-1.417 0.201,-0.596 0.431,-1.233 0.511,-1.416 0.147,-0.34 0.763,-2.093 1.318,-3.75 0.169,-0.504 0.539,-1.579 0.822,-2.388 0.284,-0.81 0.516,-1.503 0.516,-1.542 0,-0.039 -3.1,-0.07 -6.889,-0.07 h -6.888 l -0.179,0.375 c -0.098,0.206 -0.441,1.125 -0.763,2.041 -0.322,0.917 -0.779,2.215 -1.017,2.885 -0.237,0.67 -0.431,1.251 -0.431,1.292 0,0.04 0.938,0.073 2.083,0.073 2.263,0 2.308,0.022 1.616,0.755 -3.078,3.261 -8.775,3.429 -9.655,0.284 -0.203,-0.724 -0.138,-3.078 0.107,-3.884 0.474,-1.56 0.865,-2.751 1.007,-3.071 0.774,-1.739 1.372,-2.884 1.759,-3.364 0.091,-0.114 0.458,-0.604 0.814,-1.089 3.013,-4.102 9.061,-4.412 9.516,-0.487 l 0.119,1.023 h 4.794 4.795 l 0.106,-0.773 c 0.84,-6.133 -2.432,-10.018 -8.894,-10.561 -1.055,-0.088 -1.992,-0.151 -2.084,-0.139 -0.091,0.012 -0.886,0.076 -1.765,0.143 m -85.942,1.038 c -0.099,0.207 -0.382,0.975 -0.629,1.709 -0.246,0.733 -0.509,1.483 -0.584,1.666 -0.074,0.184 -0.21,0.559 -0.301,0.834 -0.092,0.275 -0.554,1.587 -1.027,2.916 -0.474,1.33 -0.961,2.717 -1.082,3.084 -0.121,0.366 -0.572,1.641 -1.001,2.833 -0.429,1.192 -1.028,2.879 -1.332,3.75 -0.303,0.871 -0.938,2.671 -1.41,4 -0.472,1.329 -1.049,2.979 -1.281,3.667 -0.232,0.687 -0.529,1.486 -0.659,1.775 -0.13,0.289 -0.237,0.59 -0.237,0.67 0,0.08 -0.215,0.706 -0.477,1.392 -0.263,0.685 -0.531,1.415 -0.595,1.621 l -0.117,0.375 h 5.139 5.139 l 0.632,-1.875 c 0.348,-1.031 0.699,-2.025 0.782,-2.208 0.082,-0.184 0.346,-0.934 0.586,-1.667 0.241,-0.733 0.544,-1.57 0.674,-1.859 0.131,-0.288 0.237,-0.587 0.237,-0.663 0,-0.076 0.194,-0.645 0.432,-1.266 l 0.431,-1.129 h 5.452 5.453 l 0.297,-0.875 c 0.163,-0.481 0.358,-1.025 0.432,-1.208 0.075,-0.183 0.337,-0.933 0.584,-1.667 0.246,-0.733 0.51,-1.483 0.587,-1.666 0.076,-0.184 0.212,-0.559 0.302,-0.834 0.089,-0.275 0.216,-0.631 0.281,-0.791 0.111,-0.275 -0.21,-0.292 -5.385,-0.292 h -5.504 l 0.384,-1.042 c 0.211,-0.573 0.643,-1.754 0.961,-2.625 l 0.578,-1.583 6.88,-0.083 6.88,-0.084 0.498,-1.416 c 0.273,-0.78 0.784,-2.205 1.135,-3.167 0.352,-0.963 0.688,-1.956 0.749,-2.208 l 0.109,-0.459 h -11.906 -11.907 l -0.18,0.375 m 28.385,-0.166 c -0.034,0.114 -0.332,0.964 -0.662,1.888 -0.329,0.924 -0.599,1.738 -0.599,1.808 0,0.071 -0.107,0.365 -0.237,0.653 -0.13,0.289 -0.427,1.088 -0.659,1.776 -0.232,0.687 -0.808,2.337 -1.28,3.666 -0.472,1.33 -1.069,3.017 -1.328,3.75 -0.258,0.734 -0.858,2.421 -1.332,3.75 -0.474,1.33 -0.961,2.717 -1.083,3.084 -0.122,0.366 -0.596,1.716 -1.053,3 -2.014,5.651 -2.361,6.661 -2.361,6.866 0,0.176 2.226,0.217 11.895,0.217 h 11.896 l 0.594,-1.625 c 1.31,-3.587 1.74,-4.812 1.845,-5.25 l 0.109,-0.458 h -6.822 -6.822 l 0.58,-1.625 c 0.319,-0.894 0.803,-2.3 1.077,-3.125 0.273,-0.825 0.566,-1.65 0.65,-1.834 0.158,-0.343 0.445,-1.151 1.835,-5.166 0.444,-1.284 1.196,-3.421 1.67,-4.75 0.475,-1.33 0.96,-2.717 1.078,-3.084 0.119,-0.366 0.448,-1.29 0.732,-2.053 0.284,-0.762 0.516,-1.456 0.516,-1.541 0,-0.256 -10.163,-0.203 -10.239,0.053 m 28.218,0.25 c -0.098,0.252 -0.426,1.17 -0.728,2.041 -0.302,0.871 -0.935,2.671 -1.408,4 -0.472,1.33 -1.047,2.98 -1.278,3.667 -0.23,0.688 -0.487,1.4 -0.57,1.583 -0.083,0.184 -0.346,0.896 -0.586,1.584 -0.239,0.687 -0.685,1.962 -0.99,2.833 -0.306,0.871 -0.903,2.596 -1.328,3.833 -0.425,1.238 -0.837,2.4 -0.916,2.584 -0.078,0.183 -0.307,0.82 -0.508,1.416 -0.202,0.596 -0.432,1.234 -0.512,1.417 -0.08,0.183 -0.341,0.933 -0.58,1.667 -0.239,0.733 -0.498,1.483 -0.575,1.666 -0.076,0.184 -0.213,0.559 -0.303,0.834 -0.089,0.275 -0.216,0.631 -0.281,0.791 -0.111,0.274 0.191,0.292 4.987,0.292 h 5.105 l 0.18,-0.458 c 0.315,-0.802 1.647,-4.57 2.166,-6.125 0.275,-0.825 0.608,-1.737 0.74,-2.026 0.132,-0.288 0.239,-0.581 0.239,-0.65 0,-0.068 0.273,-0.882 0.606,-1.808 0.333,-0.926 0.828,-2.321 1.1,-3.1 0.273,-0.779 0.555,-1.566 0.629,-1.75 0.073,-0.183 0.297,-0.821 0.499,-1.416 0.201,-0.596 0.43,-1.234 0.508,-1.417 0.079,-0.183 0.339,-0.933 0.578,-1.667 0.239,-0.733 0.502,-1.483 0.585,-1.666 0.155,-0.342 0.782,-2.123 1.321,-3.75 0.167,-0.505 0.612,-1.78 0.989,-2.834 0.376,-1.054 0.685,-1.935 0.685,-1.958 0,-0.023 -2.289,-0.042 -5.087,-0.042 h -5.088 l -0.179,0.459 m 51.491,0.166 c -0.143,0.344 -0.427,1.113 -0.631,1.709 -0.205,0.595 -0.435,1.233 -0.512,1.416 -0.078,0.184 -0.476,1.309 -0.886,2.5 -0.409,1.192 -1.132,3.254 -1.606,4.584 -0.474,1.329 -0.961,2.716 -1.082,3.083 -0.121,0.367 -0.572,1.642 -1.001,2.833 -0.429,1.192 -1.029,2.879 -1.334,3.75 -0.305,0.871 -0.926,2.634 -1.381,3.917 -0.454,1.283 -0.865,2.446 -0.913,2.583 -0.083,0.235 -1.083,3.004 -1.25,3.459 -0.06,0.163 1.024,0.208 5.072,0.208 h 5.149 l 0.627,-1.875 c 0.345,-1.031 0.691,-2.025 0.769,-2.208 0.222,-0.523 1.109,-3.033 1.591,-4.5 0.241,-0.734 0.504,-1.484 0.583,-1.667 0.08,-0.183 0.231,-0.615 0.336,-0.958 l 0.192,-0.625 h 4.627 4.627 l -0.602,1.791 c -0.331,0.986 -0.648,1.867 -0.705,1.959 -0.058,0.091 -0.181,0.429 -0.274,0.75 -0.094,0.32 -0.671,1.97 -1.284,3.666 -0.612,1.696 -1.152,3.215 -1.2,3.375 -0.082,0.274 0.233,0.292 5.02,0.292 4.719,0 5.116,-0.022 5.202,-0.292 0.051,-0.16 0.159,-0.441 0.239,-0.625 0.169,-0.387 0.721,-1.949 1.764,-5 0.408,-1.191 0.806,-2.316 0.884,-2.5 0.079,-0.183 0.308,-0.821 0.509,-1.416 0.201,-0.596 0.432,-1.234 0.513,-1.417 0.08,-0.183 0.478,-1.308 0.882,-2.5 0.405,-1.192 1.089,-3.142 1.52,-4.333 0.431,-1.192 0.919,-2.58 1.085,-3.084 0.166,-0.504 0.655,-1.891 1.086,-3.083 0.432,-1.192 0.919,-2.579 1.083,-3.083 0.165,-0.505 0.494,-1.432 0.732,-2.062 0.238,-0.63 0.432,-1.173 0.432,-1.208 0,-0.035 -2.309,-0.064 -5.132,-0.064 h -5.132 l -0.182,0.625 c -0.1,0.344 -0.536,1.6 -0.969,2.792 -0.432,1.192 -0.921,2.579 -1.086,3.083 -0.166,0.504 -0.53,1.554 -0.809,2.334 l -0.509,1.416 -4.656,0.045 -4.656,0.044 0.581,-1.628 c 0.32,-0.895 0.642,-1.777 0.716,-1.961 0.074,-0.183 0.4,-1.083 0.724,-2 0.324,-0.916 0.819,-2.309 1.1,-3.095 0.281,-0.786 0.51,-1.48 0.51,-1.542 0,-0.062 -2.273,-0.113 -5.051,-0.113 h -5.051 l -0.261,0.625 m 33.815,-0.333 c -0.049,0.16 -0.44,1.267 -0.87,2.458 -1.29,3.572 -1.748,4.93 -1.748,5.18 0,0.199 0.709,0.237 4.411,0.237 4.833,0 4.496,-0.075 4.088,0.917 -0.076,0.183 -0.339,0.933 -0.586,1.666 -0.246,0.734 -0.507,1.484 -0.58,1.667 -0.073,0.183 -0.37,1.008 -0.66,1.833 -0.291,0.825 -0.786,2.203 -1.101,3.061 -0.315,0.859 -0.572,1.635 -0.572,1.725 0,0.09 -0.104,0.4 -0.231,0.689 -0.127,0.289 -0.397,1.013 -0.6,1.609 -0.203,0.595 -0.432,1.233 -0.509,1.416 -0.078,0.184 -0.476,1.309 -0.886,2.5 -0.41,1.192 -1.004,2.898 -1.321,3.792 l -0.576,1.625 h 5.13 5.13 l 0.582,-1.708 c 0.32,-0.94 0.933,-2.684 1.363,-3.875 0.431,-1.192 0.918,-2.58 1.084,-3.084 0.166,-0.504 0.653,-1.891 1.082,-3.083 0.429,-1.192 1.028,-2.879 1.331,-3.75 0.303,-0.871 0.904,-2.558 1.335,-3.75 0.431,-1.192 0.865,-2.41 0.963,-2.708 l 0.179,-0.542 4.513,-0.002 4.514,-0.001 0.386,-1.207 c 0.213,-0.664 0.451,-1.357 0.528,-1.54 0.078,-0.183 0.217,-0.558 0.309,-0.833 0.091,-0.275 0.472,-1.358 0.847,-2.405 0.374,-1.048 0.68,-1.967 0.68,-2.042 0,-0.316 -28.12,-0.161 -28.215,0.155"
         stroke="none"
         fill="#434343"
         fill-rule="evenodd"
         clip-path="url(#clipPath1893)"
         style="fill:#545454;fill-opacity:1" />
    </g>
    <g
       id="g2208"
       transform="translate(-6.3881873,-0.33799835)"
       style="fill:#545454;fill-opacity:1">
      <g
         id="g1603"
         clip-path="url(#clipPath1751)"
         transform="translate(2.4084524,-2.3615318)"
         style="fill:#545454;fill-opacity:1">
        <path
           id="path0"
           d="m 31.527,2.6362738 c -0.27,0.27 0.349,1.294 0.783,1.294 0.314,0 1.69,1.381 1.69,1.695 0,0.185 0.409,0.733 0.917,1.229 0.83,0.811 1.194,1.576 0.75,1.576 -0.092,0 -0.167,0.117 -0.167,0.26 0,0.143 -0.075,0.213 -0.167,0.157 -0.091,-0.057 -0.166,-0.036 -0.166,0.046 0,0.266 -0.839,0.542 -1.302,0.428 -0.74,-0.183 -6.021,-2.67 -6.205,-2.923 -0.049,-0.068 -0.424,-0.304 -0.833,-0.524 -0.409,-0.221 -1.006,-0.542 -1.327,-0.714 -0.321,-0.172 -0.621,-0.351 -0.667,-0.397 -0.045,-0.046 -0.288,-0.189 -0.539,-0.318 -0.25,-0.129 -0.604,-0.374 -0.787,-0.544 -0.394,-0.367 -1.178,-0.69 -1.322,-0.544 -0.157,0.158 -0.062,2.092 0.122,2.479 0.268,0.568 1.056,2.657 1.115,2.958 0.03,0.155 0.138,0.436 0.239,0.625 0.101,0.189 0.14,0.344 0.085,0.344 -0.054,0 0.258,0.4690002 0.695,1.0420002 0.78,1.024 1.532,1.791 1.756,1.791 0.258,0.001 1.961,1.787 2.131,2.236 0.334,0.882 -0.588,1.019 -3.477,0.518 -0.824,-0.143 -1.558,-0.243 -1.633,-0.221 -0.074,0.021 -0.303,-0.055 -0.51,-0.169 -0.206,-0.115 -0.375,-0.17 -0.375,-0.123 0,0.046 -0.206,0.005 -0.458,-0.093 -0.252,-0.097 -0.571,-0.203 -0.708,-0.235 -0.138,-0.032 -0.665,-0.208 -1.172,-0.391 -0.506,-0.182 -1.294,-0.375 -1.75,-0.428 -0.455,-0.053 -1.053,-0.142 -1.328,-0.198 -0.597,-0.12 -0.453,-0.121 -2.405,0.017 -0.865,0.062 -1.882,0.217 -2.262,0.346 -0.38,0.129 -0.835,0.257 -1.012,0.285 -0.177,0.027 -0.396,0.096 -0.488,0.153 -0.092,0.057 -0.429,0.146 -0.75,0.198 -1.043,0.168 -5.782,1.983 -6.006,2.3 -0.049,0.069 -0.358,0.238 -0.687,0.376 -0.636,0.266 -2.14,1.81 -2.14,2.198 0,0.127 -0.057,0.232 -0.125,0.232 -0.201,0 -1.042,1.598 -1.042,1.978 0,0.504 0.881,0.917 1.647,0.772 0.332,-0.063 1.176,-0.141 1.876,-0.174 1.025,-0.048 1.52,-0.174 2.544,-0.647 0.699,-0.323 1.288,-0.571 1.31,-0.553 0.022,0.019 0.225,-0.096 0.452,-0.254 0.54,-0.379 0.613,-0.369 1.097,0.154 0.418,0.45 2.082,1.13 2.238,0.914 0.18,-0.248 1.245,0.037 3.169,0.846 1.52,0.638 2.154,1.021 2.952,1.78 0.202,0.193 0.409,0.35 0.459,0.35 0.112,0 0.82,0.618 2.07,1.806 0.515,0.489 1.358,1.179 1.874,1.534 2.144,1.474 2.465,2.261 0.926,2.265 -0.475,0.001 -1.241,0.054 -1.701,0.116 -1.386,0.189 -4.824,-1.027 -6.08,-2.15 -0.541,-0.485 -1.646,-0.795 -1.946,-0.546 -0.65,0.539 -0.609,3.1 0.066,4.101 0.17,0.252 0.413,0.664 0.54,0.916 0.126,0.252 0.297,0.458 0.378,0.458 0.082,0 0.102,0.075 0.046,0.167 -0.057,0.092 -0.043,0.167 0.031,0.167 0.075,0 0.398,0.23 0.719,0.511 1.156,1.013 2.432,1.92 3.25,2.312 0.458,0.219 0.893,0.499 0.966,0.621 0.074,0.122 0.237,0.222 0.363,0.222 0.127,0 0.329,0.094 0.45,0.209 0.122,0.114 0.763,0.471 1.426,0.791 1.461,0.708 1.454,0.635 0.122,1.311 -1.801,0.916 -6.35,1.138 -8.256,0.404 -0.497,-0.192 -1.268,-0.443 -1.712,-0.558 -0.443,-0.115 -0.843,-0.305 -0.888,-0.422 -0.046,-0.118 -0.3,-0.262 -0.567,-0.321 -0.266,-0.058 -0.521,-0.166 -0.566,-0.239 -0.045,-0.073 -0.477,-0.328 -0.96,-0.566 -0.483,-0.239 -1.26,-0.726 -1.727,-1.083 -0.467,-0.356 -1.217,-0.86 -1.667,-1.12 -0.45,-0.26 -0.855,-0.514 -0.901,-0.564 -0.937,-1.027 -2.883,-0.814 -2.574,0.281 0.072,0.253 0.137,0.498 0.146,0.544 0.009,0.046 0.076,0.177 0.148,0.291 0.073,0.114 0.159,0.339 0.192,0.5 0.315,1.534 0.969,3.451 2.116,6.209 0.524,1.257 0.835,1.704 2.053,2.942 0.734,0.747 1.448,1.497 1.586,1.666 0.312,0.386 1.261,1.059 1.493,1.059 0.095,0 0.173,0.076 0.173,0.169 0,0.093 0.263,0.295 0.584,0.448 0.321,0.153 0.583,0.339 0.583,0.414 0,0.074 0.08,0.135 0.178,0.135 0.098,0 0.416,0.18 0.708,0.399 0.847,0.636 7.405,1.021 13.002,0.764 1.204,-0.056 1.845,0.436 1.845,1.415 0,1.122 -1.245,1.394 -5.742,1.253 -0.896,-0.028 -1.788,0.3 -2.411,0.886 -0.258,0.243 -0.914,0.757 -1.913,1.497 -0.851,0.631 -3.118,1.953 -3.348,1.953 -0.084,0 -0.152,0.075 -0.152,0.167 0,0.091 -0.113,0.166 -0.25,0.166 -0.138,0 -0.25,0.07 -0.25,0.156 0,0.085 -0.14,0.2 -0.312,0.254 -0.338,0.107 -2.188,1.783 -2.188,1.982 0,0.067 -0.079,0.213 -0.175,0.324 -0.725,0.836 -1.49,2.046 -1.482,2.343 0.037,1.329 1.495,3.342 1.787,2.466 0.109,-0.325 0.434,-0.216 0.87,0.292 0.834,0.973 1.96,0.592 2.058,-0.697 0.032,-0.42 0.169,-0.714 0.411,-0.884 0.199,-0.139 0.7,-0.587 1.113,-0.994 1.149,-1.132 1.966,-1.457 3.092,-1.228 0.5,0.101 1.074,0.208 1.275,0.236 0.202,0.029 1.346,0.472 2.543,0.985 1.198,0.512 2.222,0.932 2.277,0.932 0.055,0 0.383,0.225 0.731,0.5 0.347,0.275 0.687,0.5 0.757,0.5 0.11,0 0.923,0.768 4.165,3.931 0.461,0.451 1.064,1.081 1.34,1.402 1.242,1.446 1.973,1.076 1.876,-0.948 l -0.055,-1.135 0.473,0.033 c 0.261,0.019 0.641,0.215 0.847,0.437 0.205,0.221 1.023,0.724 1.818,1.118 1.229,0.609 1.445,0.778 1.445,1.125 0,0.348 -0.056,0.392 -0.375,0.293 -1.314,-0.407 -1.764,-0.309 -2.187,0.477 -0.33,0.612 -0.413,1.399 -0.166,1.578 0.08,0.058 0.362,0.424 0.626,0.814 0.265,0.39 0.546,0.708 0.627,0.708 0.269,0 3.391,1.38 3.448,1.524 0.03,0.079 0.128,0.143 0.217,0.143 0.23,0 1.999,1.225 2.378,1.646 0.174,0.195 0.399,0.354 0.5,0.355 0.1,0.001 0.38,0.104 0.622,0.23 0.712,0.372 1.988,0.734 3.06,0.869 0.55,0.069 1.038,0.137 1.084,0.151 0.045,0.015 0.308,0.087 0.583,0.162 0.275,0.075 1.137,0.396 1.917,0.713 0.779,0.317 1.716,0.609 2.083,0.647 0.367,0.039 0.929,0.117 1.25,0.174 0.321,0.057 0.808,0.125 1.083,0.151 0.275,0.027 1.175,0.21 2,0.407 0.825,0.197 1.65,0.385 1.834,0.418 0.183,0.032 0.521,0.103 0.75,0.157 0.437,0.104 2.888,0.103 4.166,0 0.617,-0.05 6.321,-0.078 7.834,-0.039 0.229,0.006 0.754,-0.036 1.166,-0.094 0.413,-0.058 1.144,-0.144 1.625,-0.191 0.481,-0.047 1.315,-0.234 1.853,-0.415 0.749,-0.252 1.107,-0.293 1.522,-0.174 0.671,0.192 0.994,0.034 2.209,-1.084 0.498,-0.458 1.458,-1.321 2.132,-1.916 0.675,-0.596 1.654,-1.518 2.176,-2.049 l 0.948,-0.965 -0.003,-1.118 c -0.003,-1.297 0.111,-2.208 0.332,-2.644 0.193,-0.382 0.76,-2.718 0.742,-3.058 -0.007,-0.137 0.059,-0.587 0.147,-1 0.149,-0.695 -0.003,-3.715 -0.231,-4.583 -0.048,-0.183 -0.142,-0.558 -0.209,-0.833 -0.067,-0.275 -0.176,-0.575 -0.241,-0.667 -0.066,-0.092 -0.222,-0.523 -0.347,-0.958 -0.125,-0.436 -0.286,-0.792 -0.358,-0.792 -0.071,0 -0.13,-0.133 -0.13,-0.295 0,-0.163 -0.244,-0.674 -0.542,-1.136 -0.298,-0.462 -0.675,-1.1 -0.839,-1.417 -0.164,-0.317 -0.52,-0.815 -0.792,-1.105 -0.271,-0.291 -0.494,-0.57 -0.494,-0.619 0,-0.093 -2.231,-2.472 -2.643,-2.82 -0.125,-0.105 -0.522,-0.473 -0.882,-0.816 -0.36,-0.344 -0.714,-0.625 -0.787,-0.625 -0.073,0 -0.351,-0.231 -0.618,-0.514 -0.268,-0.282 -0.618,-0.636 -0.778,-0.787 -0.724,-0.679 0.012,-1.44 1.542,-1.594 1,-0.1 3.224,-0.928 4.492,-1.671 0.564,-0.331 1.082,-0.601 1.152,-0.601 0.069,0 0.272,-0.131 0.449,-0.292 0.178,-0.16 0.765,-0.591 1.305,-0.958 0.539,-0.367 1.233,-0.967 1.542,-1.333 1.433,-1.704 1.861,-2.324 2.221,-3.212 0.213,-0.525 0.534,-1.287 0.714,-1.694 0.18,-0.406 0.36,-0.931 0.399,-1.166 0.356,-2.131 0.396,-5.523 0.078,-6.561 -0.343,-1.117 -0.582,-2.052 -0.646,-2.534 -0.037,-0.275 -0.126,-0.575 -0.196,-0.666 -0.071,-0.092 -0.337,-0.72 -0.592,-1.396 -1.022,-2.713 -4.624,-7.103 -6.781,-8.266 -0.488,-0.264 -0.925,-0.529 -0.971,-0.59 -0.046,-0.061 -0.458,-0.327 -0.916,-0.591 -0.459,-0.264 -0.927,-0.57 -1.041,-0.681 -0.257,-0.249 -3.275,-1.727 -3.526,-1.727 -0.101,0 -0.183,-0.075 -0.183,-0.166 0,-0.092 -0.094,-0.168 -0.209,-0.169 -0.114,-10e-4 -0.651,-0.227 -1.192,-0.501 -0.542,-0.275 -1.329,-0.605 -1.75,-0.734 -0.421,-0.129 -1.511,-0.468 -2.421,-0.752 -0.91,-0.284 -1.848,-0.552 -2.083,-0.596 -0.5,-0.091 -1.058,-0.216 -1.47,-0.327 -0.161,-0.044 -0.959,-0.234 -1.774,-0.423 -0.816,-0.189 -1.678,-0.478 -1.917,-0.644 -0.239,-0.165 -0.547,-0.35 -0.684,-0.412 -0.138,-0.062 -0.493,-0.2590002 -0.79,-0.4390002 -0.477,-0.289 -0.701,-0.313 -1.897,-0.197 -1.242,0.12 -2.375,-0.008 -2.897,-0.327 -0.147,-0.09 -1.027,-0.299 -1.75,-0.415 -0.274,-0.045 -0.814,-0.162 -1.583,-0.344 -0.275,-0.065 -0.538,-0.124 -0.583,-0.13 -0.046,-0.007 -0.178,-0.072 -0.292,-0.145 -0.115,-0.073 -0.678,-0.169 -1.25,-0.214 -0.573,-0.045 -1.267,-0.148 -1.542,-0.228 -0.275,-0.08 -1.137,-0.192 -1.916,-0.249 -3.471,-0.254 -4.226,-0.39 -5.566,-1.003 -0.829,-0.379 -2.276,-1.426 -3.072,-2.222 -0.155,-0.156 -0.619,-0.385 -1.031,-0.509 -0.411,-0.125 -1.098,-0.367 -1.527,-0.539 -0.428,-0.172 -0.953,-0.345 -1.166,-0.385 -0.214,-0.039 -0.388,-0.084 -0.388,-0.099 0,-0.126 -1.761,-0.087 -1.89,0.042 m 15.64,11.0110002 c 0.453,0.141 1.639,0.246 3,0.266 2.336,0.035 3.27,0.224 3.418,0.69 0.082,0.258 0.49,0.522 1.104,0.716 0.43,0.135 0.407,2.68 -0.04,4.278 -0.192,0.687 -0.384,1.512 -0.426,1.833 -0.042,0.321 -0.139,0.733 -0.214,0.917 -0.112,0.271 -0.409,1.328 -1.124,4 -0.024,0.091 -0.12,0.541 -0.213,1 -0.176,0.867 -0.522,1.817 -0.971,2.661 -0.931,1.752 0.322,5.456 1.613,4.766 0.148,-0.08 0.307,-0.141 0.353,-0.136 0.201,0.019 0.833,-0.241 0.836,-0.344 10e-4,-0.063 0.235,-0.376 0.519,-0.697 0.284,-0.321 0.693,-0.959 0.91,-1.417 0.217,-0.458 0.771,-1.396 1.231,-2.083 0.46,-0.688 0.907,-1.412 0.993,-1.609 0.086,-0.197 0.23,-0.404 0.319,-0.459 0.132,-0.082 1.435,-1.972 3.722,-5.398 0.154,-0.231 0.701,-0.84 1.214,-1.352 0.514,-0.513 1.191,-1.23 1.506,-1.593 l 0.571,-0.661 0.499,0.369 c 0.275,0.203 0.562,0.369 0.639,0.369 0.077,0 0.286,0.115 0.465,0.256 0.605,0.474 2.104,1.411 2.257,1.411 0.084,0 0.152,0.075 0.152,0.167 0,0.091 0.098,0.166 0.219,0.166 0.12,0 0.364,0.136 0.541,0.301 0.382,0.355 2.38,1.696 2.543,1.707 0.063,0.004 0.264,0.197 0.447,0.428 0.183,0.232 0.572,0.697 0.864,1.034 0.399,0.461 0.528,0.768 0.522,1.238 -0.009,0.679 0.194,1.065 1.031,1.959 0.939,1.003 1.296,1.558 1.501,2.333 0.202,0.767 0.72,1.994 1.407,3.338 0.698,1.365 0.14,3.209 -1.557,5.146 -0.193,0.22 -0.351,0.506 -0.351,0.635 0,0.129 -0.075,0.188 -0.167,0.131 -0.092,-0.056 -0.167,-0.032 -0.167,0.055 0,0.087 -0.506,0.295 -1.125,0.461 -0.618,0.167 -1.274,0.442 -1.457,0.611 -0.188,0.174 -0.473,0.271 -0.655,0.223 -0.177,-0.046 -1.416,0.173 -2.753,0.487 -2.33,0.547 -8.279,0.782 -8.972,0.353 -0.08,-0.049 -0.806,-0.132 -1.612,-0.184 -0.807,-0.052 -1.534,-0.136 -1.616,-0.187 -0.082,-0.05 -0.354,-0.129 -0.604,-0.174 -0.251,-0.046 -1.056,-0.194 -1.789,-0.329 -4.57,-0.843 -4.691,-0.858 -5.667,-0.732 -0.183,0.024 -0.974,-0.055 -1.758,-0.174 -1.257,-0.191 -1.489,-0.186 -1.957,0.048 -0.292,0.146 -0.757,0.315 -1.033,0.375 -0.276,0.061 -0.502,0.176 -0.502,0.256 0,0.219 -1.107,0.393 -2.377,0.374 -1.15,-0.017 -1.533,0.197 -1.335,0.749 0.117,0.327 0.967,0.705 1.584,0.705 1.274,0 1.408,0.437 0.62,2.021 -0.074,0.149 -0.154,1.045 -0.178,1.992 -0.035,1.435 -0.185,2.572 -0.721,5.487 -0.026,0.137 -0.086,0.362 -0.135,0.5 -0.27,0.763 -0.791,2.533 -0.791,2.687 0,0.098 -0.104,0.416 -0.23,0.704 -0.709,1.617 -0.72,3.56 -0.029,4.925 0.226,0.447 0.447,1.214 0.491,1.706 0.16,1.798 0.552,2.645 1.223,2.645 0.495,0 1.328,-0.714 1.542,-1.321 0.501,-1.422 2.346,-5.142 2.949,-5.945 0.213,-0.284 0.387,-0.568 0.387,-0.632 0,-0.064 0.15,-0.277 0.333,-0.473 0.183,-0.196 0.6,-0.906 0.927,-1.577 0.327,-0.67 0.665,-1.219 0.751,-1.219 0.086,0 0.156,-0.071 0.156,-0.158 0,-0.735 2.03,-4.175 2.464,-4.175 0.111,0 0.203,-0.067 0.203,-0.149 0,-0.136 0.371,-0.27 1.25,-0.451 0.761,-0.158 4.329,-0.187 4.811,-0.04 0.287,0.087 0.71,0.194 0.939,0.237 0.229,0.043 0.604,0.151 0.833,0.24 0.229,0.09 0.754,0.233 1.167,0.319 0.412,0.086 1.087,0.243 1.5,0.349 0.412,0.106 0.825,0.209 0.916,0.23 0.551,0.124 1.917,0.697 1.917,0.804 0,0.07 0.082,0.127 0.183,0.127 0.255,0 1.378,0.534 1.503,0.715 0.112,0.163 0.355,0.313 1.587,0.978 1.975,1.066 6.015,5.768 6.319,7.352 0.574,3.003 0.629,3.671 0.648,7.872 0.01,2.181 -0.197,3.111 -0.816,3.663 -0.106,0.093 -0.423,0.382 -0.705,0.641 -0.331,0.304 -0.742,0.492 -1.158,0.531 -1.867,0.174 -3.998,1.093 -3.803,1.639 0.082,0.229 -0.964,0.739 -1.771,0.865 -0.314,0.048 -0.833,0.137 -1.154,0.196 -1.428,0.263 -4.666,-0.05 -4.666,-0.451 0,-0.079 0.693,-0.1 1.541,-0.048 0.848,0.051 2.202,0.101 3.008,0.111 l 1.465,0.017 0.66,-0.714 c 0.769,-0.833 0.772,-0.854 0.293,-1.812 -0.357,-0.715 -0.381,-0.73 -1.041,-0.646 -3.595,0.456 -10.921,0.665 -12.502,0.356 -0.729,-0.143 -1.569,-0.217 -3.924,-0.345 -2.374,-0.13 -2.741,-0.206 -4.43,-0.925 -0.854,-0.364 -1.657,-0.661 -1.784,-0.661 -0.126,0 -0.895,-0.337 -1.709,-0.749 -0.813,-0.411 -1.726,-0.829 -2.028,-0.929 -0.302,-0.1 -0.549,-0.245 -0.549,-0.322 0,-0.078 -0.282,-0.233 -0.625,-0.344 -0.344,-0.112 -0.685,-0.305 -0.759,-0.43 -0.073,-0.124 -0.21,-0.226 -0.303,-0.226 -0.094,0 -0.283,-0.113 -0.42,-0.25 -0.559,-0.559 -1.46,0.503 -1.06,1.249 0.149,0.279 0.121,0.288 -0.357,0.11 -0.843,-0.313 -1.888,-1.351 -3.455,-3.432 -2.678,-3.557 -3.43,-4.393 -4.429,-4.915 -0.509,-0.267 -0.926,-0.547 -0.926,-0.623 0,-0.077 -0.112,-0.139 -0.25,-0.139 -0.346,0 -0.314,-0.325 0.042,-0.432 0.554,-0.166 1.959,-0.958 2.092,-1.18 0.073,-0.122 0.242,-0.222 0.375,-0.222 0.133,0 0.241,-0.112 0.241,-0.25 0,-0.137 0.06,-0.25 0.132,-0.25 0.221,0 1.368,-1.151 1.369,-1.374 10e-4,-0.115 0.12,-0.434 0.264,-0.709 1,-1.9 0.976,-3.944 -0.075,-6.32 -0.196,-0.443 -0.356,-0.836 -0.356,-0.872 0,-0.121 0.807,-0.376 1.45,-0.457 0.858,-0.11 2.586,-0.725 2.747,-0.979 0.198,-0.311 0.162,-0.622 -0.072,-0.623 -0.115,-10e-4 -0.434,-0.121 -0.709,-0.267 -0.644,-0.342 -2.026,-0.768 -2.666,-0.821 -0.275,-0.023 -0.95,-0.12 -1.5,-0.216 -0.55,-0.096 -1.338,-0.187 -1.75,-0.202 -2.06,-0.076 -3.699,-0.052 -4.792,0.071 -1.429,0.16 -1.488,0.084 -0.375,-0.481 0.458,-0.232 0.833,-0.488 0.833,-0.57 0,-0.081 0.207,-0.221 0.459,-0.312 0.252,-0.091 0.611,-0.304 0.798,-0.475 0.187,-0.17 0.412,-0.328 0.5,-0.35 0.088,-0.022 0.598,-0.194 1.132,-0.382 0.918,-0.322 3.697,-0.5 4.082,-0.262 0.075,0.046 0.343,0.121 0.595,0.167 0.832,0.151 1.676,0.479 2.184,0.849 1.659,1.207 4.084,1.305 4.084,0.164 0,-0.226 -0.075,-0.412 -0.167,-0.412 -0.092,0 -0.167,-0.113 -0.167,-0.25 0,-0.138 -0.078,-0.25 -0.173,-0.25 -0.393,0 -0.844,-0.623 -0.743,-1.026 0.111,-0.442 -0.235,-0.65 -2.215,-1.331 -2.047,-0.705 -3.465,-1.373 -4.634,-2.186 -1.134,-0.789 -1.451,-1.263 -0.716,-1.07 0.173,0.045 0.354,0.017 0.403,-0.062 0.049,-0.079 0.199,-0.101 0.334,-0.05 0.135,0.052 0.545,-0.026 0.911,-0.172 0.367,-0.147 0.667,-0.226 0.667,-0.176 0,0.051 0.225,-0.041 0.5,-0.204 0.275,-0.162 0.5,-0.345 0.5,-0.405 0,-0.061 0.227,-0.205 0.504,-0.32 0.277,-0.115 0.664,-0.443 0.86,-0.728 0.73,-1.068 2.332,-2.664 3.136,-3.124 0.32,-0.184 0.823,-0.649 1.116,-1.032 0.293,-0.384 0.752,-0.935 1.02,-1.226 1.652,-1.792 -1.066,-2.625 -3.977,-1.219 -0.251,0.121 -3.155,-0.746 -3.326,-0.993 -0.046,-0.067 -0.796,-0.439 -1.667,-0.828 -0.871,-0.39 -1.733,-0.777 -1.916,-0.863 -0.49,-0.227 -3.105,-1.163 -3.545,-1.268 l -0.377,-0.09 0.362,-0.314 c 0.566,-0.491 1.572,-0.692 3.56,-0.712 1.008,-0.01 1.87,-0.056 1.916,-0.103 0.046,-0.046 0.395,-0.286 0.775,-0.533 1.665,-1.078 2.818,-3.592 2.33,-5.077 -0.065,-0.199 -0.15,-0.525 -0.189,-0.726 -0.038,-0.2 -0.243,-0.6 -0.455,-0.888 -0.926,-1.262 -1.078,-2.141 -0.294,-1.697 0.907,0.514 1.448,0.698 2.167,0.738 0.412,0.022 0.997,0.064 1.299,0.093 0.78,0.075 1.902,-0.225 2.227,-0.594 0.153,-0.173 0.355,-0.314 0.45,-0.314 0.096,0 0.234,-0.105 0.307,-0.234 0.263,-0.462 5.268,-0.498 6.717,-0.049 m 64.356,24.741 c -0.29,0.861 -2.154,6.15 -3.187,9.042 -0.344,0.962 -0.902,2.538 -1.241,3.5 -0.583,1.66 -0.963,2.739 -2.365,6.708 -0.332,0.94 -0.827,2.346 -1.1,3.125 -0.274,0.779 -0.562,1.567 -0.64,1.75 -0.078,0.184 -0.337,0.934 -0.576,1.667 -0.239,0.733 -0.502,1.483 -0.585,1.667 -0.212,0.469 -0.829,2.295 -0.829,2.452 0,0.204 17.53,0.16 18.814,-0.047 7.09,-1.143 10.523,-3.614 12.604,-9.072 1.095,-2.874 0.426,-5.545 -1.669,-6.659 -0.669,-0.355 -0.742,-0.439 -0.474,-0.547 1.129,-0.455 3.712,-2.7 4.587,-3.986 0.546,-0.804 1.305,-2.366 1.305,-2.687 0,-0.167 0.086,-0.391 0.192,-0.496 0.336,-0.337 0.265,-3.03 -0.098,-3.708 -1.525,-2.851 -3.871,-3.334 -16.188,-3.334 h -8.339 l -0.211,0.625 m 33.058,-0.25 c -0.06,0.207 -0.321,0.975 -0.58,1.709 -0.259,0.733 -0.748,2.12 -1.086,3.083 -0.338,0.962 -0.675,1.9 -0.748,2.083 -0.275,0.691 -1.168,3.196 -1.397,3.917 -0.131,0.413 -0.59,1.725 -1.02,2.917 -2.715,7.519 -3.118,10.768 -1.676,13.506 1.449,2.752 5.654,4.127 11.759,3.847 6.749,-0.31 11.952,-2.847 14.917,-7.274 0.275,-0.41 0.584,-0.835 0.686,-0.944 0.28,-0.298 1.654,-3.007 2.055,-4.052 0.193,-0.504 0.418,-1.067 0.499,-1.25 0.082,-0.183 0.35,-0.933 0.596,-1.667 0.247,-0.733 0.508,-1.483 0.581,-1.666 0.141,-0.355 1.066,-2.955 1.838,-5.167 1.155,-3.313 1.706,-4.858 1.84,-5.167 0.08,-0.183 0.342,-0.933 0.583,-1.666 0.241,-0.734 0.543,-1.57 0.671,-1.859 0.129,-0.289 0.234,-0.57 0.234,-0.625 0,-0.055 -2.306,-0.099 -5.125,-0.099 h -5.125 l -0.444,1.292 c -0.809,2.351 -2.087,5.95 -2.281,6.427 -0.105,0.258 -0.191,0.516 -0.191,0.574 0,0.059 -0.219,0.71 -0.485,1.448 -0.267,0.738 -0.762,2.129 -1.1,3.092 -0.338,0.962 -0.675,1.9 -0.749,2.083 -0.074,0.183 -0.3,0.821 -0.502,1.417 -0.203,0.595 -0.465,1.308 -0.581,1.583 -0.117,0.275 -0.267,0.688 -0.332,0.917 -0.846,2.956 -3.28,4.892 -6.168,4.907 -3.26,0.018 -4.103,-1.267 -3.013,-4.592 0.621,-1.898 1.928,-5.693 2.088,-6.065 0.078,-0.184 0.307,-0.821 0.508,-1.417 0.202,-0.596 0.432,-1.233 0.512,-1.417 0.08,-0.183 0.341,-0.933 0.58,-1.666 0.239,-0.734 0.501,-1.484 0.583,-1.667 0.156,-0.353 0.872,-2.383 1.233,-3.5 0.118,-0.367 0.413,-1.182 0.654,-1.812 0.241,-0.629 0.438,-1.248 0.438,-1.375 0,-0.19 -0.869,-0.23 -5.072,-0.23 h -5.072 l -0.108,0.375 m 34.942,1.167 c -0.645,1.803 -1.57,4.422 -2.104,5.958 -0.969,2.787 -1.795,5.114 -1.925,5.417 -0.078,0.183 -0.478,1.308 -0.889,2.5 -0.41,1.192 -1.097,3.142 -1.525,4.333 -0.429,1.192 -0.886,2.504 -1.017,2.917 -0.13,0.413 -0.458,1.35 -0.727,2.083 -1.09,2.969 -2.003,5.588 -2.003,5.748 0,0.301 17.088,0.222 19.179,-0.09 5.702,-0.848 9.414,-3.138 11.376,-7.016 2.017,-3.987 1.712,-7.295 -0.795,-8.628 l -0.755,-0.401 0.789,-0.458 c 5.071,-2.94 7.442,-9.128 4.511,-11.768 -2.038,-1.835 -4.183,-2.137 -15.214,-2.137 h -8.35 l -0.551,1.542 m 33.408,-0.75 c -0.203,0.643 -1.052,3.07 -1.473,4.208 -0.051,0.138 -0.367,1.038 -0.702,2 -0.335,0.963 -0.877,2.5 -1.203,3.417 -0.789,2.219 -1.406,3.967 -2.145,6.083 -0.336,0.963 -0.894,2.538 -1.239,3.5 -0.346,0.963 -0.832,2.35 -1.08,3.084 -0.248,0.733 -0.521,1.483 -0.606,1.666 -0.085,0.184 -0.222,0.559 -0.305,0.834 -0.083,0.275 -0.494,1.466 -0.914,2.648 -0.42,1.182 -0.764,2.213 -0.764,2.292 0,0.079 2.277,0.143 5.061,0.143 h 5.061 l 0.453,-1.292 c 0.25,-0.71 0.516,-1.441 0.592,-1.625 0.076,-0.183 0.339,-0.933 0.586,-1.666 0.246,-0.734 0.508,-1.484 0.581,-1.667 0.143,-0.358 0.937,-2.595 1.924,-5.417 1.113,-3.181 1.608,-4.579 1.742,-4.916 0.073,-0.184 0.334,-0.934 0.58,-1.667 0.247,-0.733 0.509,-1.483 0.584,-1.667 0.135,-0.332 0.589,-1.612 1.744,-4.916 0.337,-0.963 0.868,-2.463 1.181,-3.334 0.313,-0.871 0.616,-1.789 0.675,-2.041 l 0.105,-0.459 h -5.094 -5.095 l -0.249,0.792 m -87.956,6.717 c 1.314,0.303 1.511,0.952 0.752,2.474 -0.869,1.744 -2.021,2.184 -5.724,2.184 h -2.313 l 0.142,-0.458 c 0.079,-0.252 0.448,-1.32 0.822,-2.372 0.374,-1.052 0.679,-1.933 0.679,-1.958 0,-0.129 5.021,-0.013 5.642,0.13 m 68.325,-0.022 c 2.125,0.411 1,3.682 -1.524,4.432 -0.701,0.208 -5.778,0.389 -5.775,0.206 0.001,-0.064 0.761,-2.152 0.975,-2.677 0.105,-0.258 0.191,-0.518 0.191,-0.578 0,-0.06 0.122,-0.43 0.272,-0.822 l 0.273,-0.714 2.436,0.007 c 1.339,0.004 2.758,0.07 3.152,0.146 m -71.216,10.771 c 2.117,0.615 1.472,3.465 -1.048,4.629 -0.82,0.379 -7.206,0.675 -7.2,0.334 0.002,-0.149 0.882,-2.718 1.02,-2.978 0.046,-0.088 0.229,-0.628 0.406,-1.201 l 0.321,-1.042 h 2.808 c 2.038,0 3.05,0.071 3.693,0.258 m 68.665,0.159 c 1.627,0.814 0.832,3.45 -1.339,4.443 -0.858,0.392 -7.249,0.711 -7.24,0.361 0.006,-0.22 1.458,-4.404 1.566,-4.512 0.053,-0.054 0.097,-0.24 0.097,-0.413 0,-0.486 5.91,-0.383 6.916,0.121 m -137.9,6.22 c -0.1,0.188 -0.182,0.619 -0.182,0.957 0,0.44 -0.169,0.851 -0.588,1.434 -0.71,0.989 -0.955,2.199 -0.511,2.524 0.241,0.176 0.272,0.448 0.211,1.879 -0.115,2.72 1.427,3.351 1.618,0.663 0.127,-1.774 0.559,-2.755 1.164,-2.644 1.499,0.274 3.592,0.065 4.147,-0.416 0.464,-0.4 0.359,-1.867 -0.133,-1.867 -0.531,0 -0.329,-0.273 0.227,-0.306 1.323,-0.077 1.121,2.583 -0.215,2.831 -0.83,0.154 -0.65,1.821 0.21,1.945 0.337,0.048 0.37,0.146 0.37,1.1 0,1.453 0.44,2.597 0.999,2.597 0.28,0 0.689,-1.401 0.647,-2.21 -0.084,-1.593 0.2,-1.856 2.187,-2.029 1.486,-0.13 1.5,-0.132 1.5,-0.289 0,-0.076 0.102,-0.139 0.226,-0.139 0.124,0 0.443,-0.205 0.708,-0.455 0.265,-0.25 0.702,-0.574 0.97,-0.721 0.268,-0.147 0.611,-0.498 0.763,-0.782 l 0.277,-0.516 0.22,1.107 c 0.22,1.104 0.534,1.929 1.676,4.401 0.425,0.92 1.407,0.732 1.943,-0.372 0.768,-1.585 1.214,-2.701 1.273,-3.184 0.038,-0.309 0.195,-0.899 0.348,-1.311 0.43,-1.154 0.487,-2.075 0.184,-2.988 -0.458,-1.376 -1.587,-1.218 -1.589,0.222 0,0.6 -0.289,1.454 -1.216,3.594 l -0.25,0.578 -0.192,-0.745 c -0.777,-3.014 -1.123,-3.482 -2.29,-3.098 -0.282,0.092 -0.428,0.025 -0.635,-0.291 -0.295,-0.45 -2.186,-1.295 -2.693,-1.204 -1.386,0.25 -1.948,0.266 -2.491,0.069 -0.57,-0.206 -0.617,-0.195 -0.998,0.249 l -0.401,0.466 v -0.406 c 0,-0.743 -0.282,-0.808 -3.896,-0.899 -3.306,-0.083 -3.41,-0.076 -3.588,0.256 m 10.815,3.351 c -0.012,0.445 -2.027,1.203 -2.247,0.846 -0.096,-0.155 0.079,-0.707 0.263,-0.834 0.171,-0.117 1.987,-0.128 1.984,-0.012"
           stroke="none"
           fill="#0ca4dc"
           fill-rule="evenodd"
           style="fill:#545454;fill-opacity:1" />
        <path
           id="path1"
           d="m 315.818,37.100274 c -8.67,0.661 -16.793,7.394 -19.803,16.413 -2.741,8.216 -0.658,13.71 5.818,15.346 2.514,0.635 7.845,0.293 9.491,-0.609 0.143,-0.078 0.623,-0.3 1.067,-0.492 0.978,-0.425 2.388,-1.26 2.901,-1.718 0.459,-0.41 0.478,-0.242 0.125,1.113 -0.412,1.579 -0.676,1.457 3.031,1.406 l 3.282,-0.046 0.388,-1 c 0.214,-0.55 0.69,-1.9 1.059,-3 0.368,-1.1 0.735,-2.15 0.814,-2.333 0.078,-0.183 0.308,-0.821 0.509,-1.417 0.201,-0.596 0.431,-1.233 0.511,-1.416 0.147,-0.34 0.763,-2.093 1.318,-3.75 0.169,-0.504 0.539,-1.579 0.822,-2.388 0.284,-0.81 0.516,-1.503 0.516,-1.542 0,-0.039 -3.1,-0.07 -6.889,-0.07 h -6.888 l -0.179,0.375 c -0.098,0.206 -0.441,1.125 -0.763,2.041 -0.322,0.917 -0.779,2.215 -1.017,2.885 -0.237,0.67 -0.431,1.251 -0.431,1.292 0,0.04 0.938,0.073 2.083,0.073 2.263,0 2.308,0.022 1.616,0.755 -3.078,3.261 -8.775,3.429 -9.655,0.284 -0.203,-0.724 -0.138,-3.078 0.107,-3.884 0.474,-1.56 0.865,-2.751 1.007,-3.071 0.774,-1.739 1.372,-2.884 1.759,-3.364 0.091,-0.114 0.458,-0.604 0.814,-1.089 3.013,-4.102 9.061,-4.412 9.516,-0.487 l 0.119,1.023 h 4.794 4.795 l 0.106,-0.773 c 0.84,-6.133 -2.432,-10.018 -8.894,-10.561 -1.055,-0.088 -1.992,-0.151 -2.084,-0.139 -0.091,0.012 -0.886,0.076 -1.765,0.143 m -85.942,1.038 c -0.099,0.207 -0.382,0.975 -0.629,1.709 -0.246,0.733 -0.509,1.483 -0.584,1.666 -0.074,0.184 -0.21,0.559 -0.301,0.834 -0.092,0.275 -0.554,1.587 -1.027,2.916 -0.474,1.33 -0.961,2.717 -1.082,3.084 -0.121,0.366 -0.572,1.641 -1.001,2.833 -0.429,1.192 -1.028,2.879 -1.332,3.75 -0.303,0.871 -0.938,2.671 -1.41,4 -0.472,1.329 -1.049,2.979 -1.281,3.667 -0.232,0.687 -0.529,1.486 -0.659,1.775 -0.13,0.289 -0.237,0.59 -0.237,0.67 0,0.08 -0.215,0.706 -0.477,1.392 -0.263,0.685 -0.531,1.415 -0.595,1.621 l -0.117,0.375 h 5.139 5.139 l 0.632,-1.875 c 0.348,-1.031 0.699,-2.025 0.782,-2.208 0.082,-0.184 0.346,-0.934 0.586,-1.667 0.241,-0.733 0.544,-1.57 0.674,-1.859 0.131,-0.288 0.237,-0.587 0.237,-0.663 0,-0.076 0.194,-0.645 0.432,-1.266 l 0.431,-1.129 h 5.452 5.453 l 0.297,-0.875 c 0.163,-0.481 0.358,-1.025 0.432,-1.208 0.075,-0.183 0.337,-0.933 0.584,-1.667 0.246,-0.733 0.51,-1.483 0.587,-1.666 0.076,-0.184 0.212,-0.559 0.302,-0.834 0.089,-0.275 0.216,-0.631 0.281,-0.791 0.111,-0.275 -0.21,-0.292 -5.385,-0.292 h -5.504 l 0.384,-1.042 c 0.211,-0.573 0.643,-1.754 0.961,-2.625 l 0.578,-1.583 6.88,-0.083 6.88,-0.084 0.498,-1.416 c 0.273,-0.78 0.784,-2.205 1.135,-3.167 0.352,-0.963 0.688,-1.956 0.749,-2.208 l 0.109,-0.459 h -11.906 -11.907 l -0.18,0.375 m 28.385,-0.166 c -0.034,0.114 -0.332,0.964 -0.662,1.888 -0.329,0.924 -0.599,1.738 -0.599,1.808 0,0.071 -0.107,0.365 -0.237,0.653 -0.13,0.289 -0.427,1.088 -0.659,1.776 -0.232,0.687 -0.808,2.337 -1.28,3.666 -0.472,1.33 -1.069,3.017 -1.328,3.75 -0.258,0.734 -0.858,2.421 -1.332,3.75 -0.474,1.33 -0.961,2.717 -1.083,3.084 -0.122,0.366 -0.596,1.716 -1.053,3 -2.014,5.651 -2.361,6.661 -2.361,6.866 0,0.176 2.226,0.217 11.895,0.217 h 11.896 l 0.594,-1.625 c 1.31,-3.587 1.74,-4.812 1.845,-5.25 l 0.109,-0.458 h -6.822 -6.822 l 0.58,-1.625 c 0.319,-0.894 0.803,-2.3 1.077,-3.125 0.273,-0.825 0.566,-1.65 0.65,-1.834 0.158,-0.343 0.445,-1.151 1.835,-5.166 0.444,-1.284 1.196,-3.421 1.67,-4.75 0.475,-1.33 0.96,-2.717 1.078,-3.084 0.119,-0.366 0.448,-1.29 0.732,-2.053 0.284,-0.762 0.516,-1.456 0.516,-1.541 0,-0.256 -10.163,-0.203 -10.239,0.053 m 28.218,0.25 c -0.098,0.252 -0.426,1.17 -0.728,2.041 -0.302,0.871 -0.935,2.671 -1.408,4 -0.472,1.33 -1.047,2.98 -1.278,3.667 -0.23,0.688 -0.487,1.4 -0.57,1.583 -0.083,0.184 -0.346,0.896 -0.586,1.584 -0.239,0.687 -0.685,1.962 -0.99,2.833 -0.306,0.871 -0.903,2.596 -1.328,3.833 -0.425,1.238 -0.837,2.4 -0.916,2.584 -0.078,0.183 -0.307,0.82 -0.508,1.416 -0.202,0.596 -0.432,1.234 -0.512,1.417 -0.08,0.183 -0.341,0.933 -0.58,1.667 -0.239,0.733 -0.498,1.483 -0.575,1.666 -0.076,0.184 -0.213,0.559 -0.303,0.834 -0.089,0.275 -0.216,0.631 -0.281,0.791 -0.111,0.274 0.191,0.292 4.987,0.292 h 5.105 l 0.18,-0.458 c 0.315,-0.802 1.647,-4.57 2.166,-6.125 0.275,-0.825 0.608,-1.737 0.74,-2.026 0.132,-0.288 0.239,-0.581 0.239,-0.65 0,-0.068 0.273,-0.882 0.606,-1.808 0.333,-0.926 0.828,-2.321 1.1,-3.1 0.273,-0.779 0.555,-1.566 0.629,-1.75 0.073,-0.183 0.297,-0.821 0.499,-1.416 0.201,-0.596 0.43,-1.234 0.508,-1.417 0.079,-0.183 0.339,-0.933 0.578,-1.667 0.239,-0.733 0.502,-1.483 0.585,-1.666 0.155,-0.342 0.782,-2.123 1.321,-3.75 0.167,-0.505 0.612,-1.78 0.989,-2.834 0.376,-1.054 0.685,-1.935 0.685,-1.958 0,-0.023 -2.289,-0.042 -5.087,-0.042 h -5.088 l -0.179,0.459 m 51.491,0.166 c -0.143,0.344 -0.427,1.113 -0.631,1.709 -0.205,0.595 -0.435,1.233 -0.512,1.416 -0.078,0.184 -0.476,1.309 -0.886,2.5 -0.409,1.192 -1.132,3.254 -1.606,4.584 -0.474,1.329 -0.961,2.716 -1.082,3.083 -0.121,0.367 -0.572,1.642 -1.001,2.833 -0.429,1.192 -1.029,2.879 -1.334,3.75 -0.305,0.871 -0.926,2.634 -1.381,3.917 -0.454,1.283 -0.865,2.446 -0.913,2.583 -0.083,0.235 -1.083,3.004 -1.25,3.459 -0.06,0.163 1.024,0.208 5.072,0.208 h 5.149 l 0.627,-1.875 c 0.345,-1.031 0.691,-2.025 0.769,-2.208 0.222,-0.523 1.109,-3.033 1.591,-4.5 0.241,-0.734 0.504,-1.484 0.583,-1.667 0.08,-0.183 0.231,-0.615 0.336,-0.958 l 0.192,-0.625 h 4.627 4.627 l -0.602,1.791 c -0.331,0.986 -0.648,1.867 -0.705,1.959 -0.058,0.091 -0.181,0.429 -0.274,0.75 -0.094,0.32 -0.671,1.97 -1.284,3.666 -0.612,1.696 -1.152,3.215 -1.2,3.375 -0.082,0.274 0.233,0.292 5.02,0.292 4.719,0 5.116,-0.022 5.202,-0.292 0.051,-0.16 0.159,-0.441 0.239,-0.625 0.169,-0.387 0.721,-1.949 1.764,-5 0.408,-1.191 0.806,-2.316 0.884,-2.5 0.079,-0.183 0.308,-0.821 0.509,-1.416 0.201,-0.596 0.432,-1.234 0.513,-1.417 0.08,-0.183 0.478,-1.308 0.882,-2.5 0.405,-1.192 1.089,-3.142 1.52,-4.333 0.431,-1.192 0.919,-2.58 1.085,-3.084 0.166,-0.504 0.655,-1.891 1.086,-3.083 0.432,-1.192 0.919,-2.579 1.083,-3.083 0.165,-0.505 0.494,-1.432 0.732,-2.062 0.238,-0.63 0.432,-1.173 0.432,-1.208 0,-0.035 -2.309,-0.064 -5.132,-0.064 h -5.132 l -0.182,0.625 c -0.1,0.344 -0.536,1.6 -0.969,2.792 -0.432,1.192 -0.921,2.579 -1.086,3.083 -0.166,0.504 -0.53,1.554 -0.809,2.334 l -0.509,1.416 -4.656,0.045 -4.656,0.044 0.581,-1.628 c 0.32,-0.895 0.642,-1.777 0.716,-1.961 0.074,-0.183 0.4,-1.083 0.724,-2 0.324,-0.916 0.819,-2.309 1.1,-3.095 0.281,-0.786 0.51,-1.48 0.51,-1.542 0,-0.062 -2.273,-0.113 -5.051,-0.113 h -5.051 l -0.261,0.625 m 33.815,-0.333 c -0.049,0.16 -0.44,1.267 -0.87,2.458 -1.29,3.572 -1.748,4.93 -1.748,5.18 0,0.199 0.709,0.237 4.411,0.237 4.833,0 4.496,-0.075 4.088,0.917 -0.076,0.183 -0.339,0.933 -0.586,1.666 -0.246,0.734 -0.507,1.484 -0.58,1.667 -0.073,0.183 -0.37,1.008 -0.66,1.833 -0.291,0.825 -0.786,2.203 -1.101,3.061 -0.315,0.859 -0.572,1.635 -0.572,1.725 0,0.09 -0.104,0.4 -0.231,0.689 -0.127,0.289 -0.397,1.013 -0.6,1.609 -0.203,0.595 -0.432,1.233 -0.509,1.416 -0.078,0.184 -0.476,1.309 -0.886,2.5 -0.41,1.192 -1.004,2.898 -1.321,3.792 l -0.576,1.625 h 5.13 5.13 l 0.582,-1.708 c 0.32,-0.94 0.933,-2.684 1.363,-3.875 0.431,-1.192 0.918,-2.58 1.084,-3.084 0.166,-0.504 0.653,-1.891 1.082,-3.083 0.429,-1.192 1.028,-2.879 1.331,-3.75 0.303,-0.871 0.904,-2.558 1.335,-3.75 0.431,-1.192 0.865,-2.41 0.963,-2.708 l 0.179,-0.542 4.513,-0.002 4.514,-0.001 0.386,-1.207 c 0.213,-0.664 0.451,-1.357 0.528,-1.54 0.078,-0.183 0.217,-0.558 0.309,-0.833 0.091,-0.275 0.472,-1.358 0.847,-2.405 0.374,-1.048 0.68,-1.967 0.68,-2.042 0,-0.316 -28.12,-0.161 -28.215,0.155"
           stroke="none"
           fill="#434343"
           fill-rule="evenodd"
           style="fill:#545454;fill-opacity:1" />
      </g>
      <g
         id="g1759"
         transform="translate(2.4084524,-2.3615318)"
         clip-path="url(#clipPath2118)"
         style="fill:#545454;fill-opacity:1">
        <path
           id="path1755"
           d="m 31.527,2.6362738 c -0.27,0.27 0.349,1.294 0.783,1.294 0.314,0 1.69,1.381 1.69,1.695 0,0.185 0.409,0.733 0.917,1.229 0.83,0.811 1.194,1.576 0.75,1.576 -0.092,0 -0.167,0.117 -0.167,0.26 0,0.143 -0.075,0.213 -0.167,0.157 -0.091,-0.057 -0.166,-0.036 -0.166,0.046 0,0.266 -0.839,0.542 -1.302,0.428 -0.74,-0.183 -6.021,-2.67 -6.205,-2.923 -0.049,-0.068 -0.424,-0.304 -0.833,-0.524 -0.409,-0.221 -1.006,-0.542 -1.327,-0.714 -0.321,-0.172 -0.621,-0.351 -0.667,-0.397 -0.045,-0.046 -0.288,-0.189 -0.539,-0.318 -0.25,-0.129 -0.604,-0.374 -0.787,-0.544 -0.394,-0.367 -1.178,-0.69 -1.322,-0.544 -0.157,0.158 -0.062,2.092 0.122,2.479 0.268,0.568 1.056,2.657 1.115,2.958 0.03,0.155 0.138,0.436 0.239,0.625 0.101,0.189 0.14,0.344 0.085,0.344 -0.054,0 0.258,0.4690002 0.695,1.0420002 0.78,1.024 1.532,1.791 1.756,1.791 0.258,0.001 1.961,1.787 2.131,2.236 0.334,0.882 -0.588,1.019 -3.477,0.518 -0.824,-0.143 -1.558,-0.243 -1.633,-0.221 -0.074,0.021 -0.303,-0.055 -0.51,-0.169 -0.206,-0.115 -0.375,-0.17 -0.375,-0.123 0,0.046 -0.206,0.005 -0.458,-0.093 -0.252,-0.097 -0.571,-0.203 -0.708,-0.235 -0.138,-0.032 -0.665,-0.208 -1.172,-0.391 -0.506,-0.182 -1.294,-0.375 -1.75,-0.428 -0.455,-0.053 -1.053,-0.142 -1.328,-0.198 -0.597,-0.12 -0.453,-0.121 -2.405,0.017 -0.865,0.062 -1.882,0.217 -2.262,0.346 -0.38,0.129 -0.835,0.257 -1.012,0.285 -0.177,0.027 -0.396,0.096 -0.488,0.153 -0.092,0.057 -0.429,0.146 -0.75,0.198 -1.043,0.168 -5.782,1.983 -6.006,2.3 -0.049,0.069 -0.358,0.238 -0.687,0.376 -0.636,0.266 -2.14,1.81 -2.14,2.198 0,0.127 -0.057,0.232 -0.125,0.232 -0.201,0 -1.042,1.598 -1.042,1.978 0,0.504 0.881,0.917 1.647,0.772 0.332,-0.063 1.176,-0.141 1.876,-0.174 1.025,-0.048 1.52,-0.174 2.544,-0.647 0.699,-0.323 1.288,-0.571 1.31,-0.553 0.022,0.019 0.225,-0.096 0.452,-0.254 0.54,-0.379 0.613,-0.369 1.097,0.154 0.418,0.45 2.082,1.13 2.238,0.914 0.18,-0.248 1.245,0.037 3.169,0.846 1.52,0.638 2.154,1.021 2.952,1.78 0.202,0.193 0.409,0.35 0.459,0.35 0.112,0 0.82,0.618 2.07,1.806 0.515,0.489 1.358,1.179 1.874,1.534 2.144,1.474 2.465,2.261 0.926,2.265 -0.475,0.001 -1.241,0.054 -1.701,0.116 -1.386,0.189 -4.824,-1.027 -6.08,-2.15 -0.541,-0.485 -1.646,-0.795 -1.946,-0.546 -0.65,0.539 -0.609,3.1 0.066,4.101 0.17,0.252 0.413,0.664 0.54,0.916 0.126,0.252 0.297,0.458 0.378,0.458 0.082,0 0.102,0.075 0.046,0.167 -0.057,0.092 -0.043,0.167 0.031,0.167 0.075,0 0.398,0.23 0.719,0.511 1.156,1.013 2.432,1.92 3.25,2.312 0.458,0.219 0.893,0.499 0.966,0.621 0.074,0.122 0.237,0.222 0.363,0.222 0.127,0 0.329,0.094 0.45,0.209 0.122,0.114 0.763,0.471 1.426,0.791 1.461,0.708 1.454,0.635 0.122,1.311 -1.801,0.916 -6.35,1.138 -8.256,0.404 -0.497,-0.192 -1.268,-0.443 -1.712,-0.558 -0.443,-0.115 -0.843,-0.305 -0.888,-0.422 -0.046,-0.118 -0.3,-0.262 -0.567,-0.321 -0.266,-0.058 -0.521,-0.166 -0.566,-0.239 -0.045,-0.073 -0.477,-0.328 -0.96,-0.566 -0.483,-0.239 -1.26,-0.726 -1.727,-1.083 -0.467,-0.356 -1.217,-0.86 -1.667,-1.12 -0.45,-0.26 -0.855,-0.514 -0.901,-0.564 -0.937,-1.027 -2.883,-0.814 -2.574,0.281 0.072,0.253 0.137,0.498 0.146,0.544 0.009,0.046 0.076,0.177 0.148,0.291 0.073,0.114 0.159,0.339 0.192,0.5 0.315,1.534 0.969,3.451 2.116,6.209 0.524,1.257 0.835,1.704 2.053,2.942 0.734,0.747 1.448,1.497 1.586,1.666 0.312,0.386 1.261,1.059 1.493,1.059 0.095,0 0.173,0.076 0.173,0.169 0,0.093 0.263,0.295 0.584,0.448 0.321,0.153 0.583,0.339 0.583,0.414 0,0.074 0.08,0.135 0.178,0.135 0.098,0 0.416,0.18 0.708,0.399 0.847,0.636 7.405,1.021 13.002,0.764 1.204,-0.056 1.845,0.436 1.845,1.415 0,1.122 -1.245,1.394 -5.742,1.253 -0.896,-0.028 -1.788,0.3 -2.411,0.886 -0.258,0.243 -0.914,0.757 -1.913,1.497 -0.851,0.631 -3.118,1.953 -3.348,1.953 -0.084,0 -0.152,0.075 -0.152,0.167 0,0.091 -0.113,0.166 -0.25,0.166 -0.138,0 -0.25,0.07 -0.25,0.156 0,0.085 -0.14,0.2 -0.312,0.254 -0.338,0.107 -2.188,1.783 -2.188,1.982 0,0.067 -0.079,0.213 -0.175,0.324 -0.725,0.836 -1.49,2.046 -1.482,2.343 0.037,1.329 1.495,3.342 1.787,2.466 0.109,-0.325 0.434,-0.216 0.87,0.292 0.834,0.973 1.96,0.592 2.058,-0.697 0.032,-0.42 0.169,-0.714 0.411,-0.884 0.199,-0.139 0.7,-0.587 1.113,-0.994 1.149,-1.132 1.966,-1.457 3.092,-1.228 0.5,0.101 1.074,0.208 1.275,0.236 0.202,0.029 1.346,0.472 2.543,0.985 1.198,0.512 2.222,0.932 2.277,0.932 0.055,0 0.383,0.225 0.731,0.5 0.347,0.275 0.687,0.5 0.757,0.5 0.11,0 0.923,0.768 4.165,3.931 0.461,0.451 1.064,1.081 1.34,1.402 1.242,1.446 1.973,1.076 1.876,-0.948 l -0.055,-1.135 0.473,0.033 c 0.261,0.019 0.641,0.215 0.847,0.437 0.205,0.221 1.023,0.724 1.818,1.118 1.229,0.609 1.445,0.778 1.445,1.125 0,0.348 -0.056,0.392 -0.375,0.293 -1.314,-0.407 -1.764,-0.309 -2.187,0.477 -0.33,0.612 -0.413,1.399 -0.166,1.578 0.08,0.058 0.362,0.424 0.626,0.814 0.265,0.39 0.546,0.708 0.627,0.708 0.269,0 3.391,1.38 3.448,1.524 0.03,0.079 0.128,0.143 0.217,0.143 0.23,0 1.999,1.225 2.378,1.646 0.174,0.195 0.399,0.354 0.5,0.355 0.1,0.001 0.38,0.104 0.622,0.23 0.712,0.372 1.988,0.734 3.06,0.869 0.55,0.069 1.038,0.137 1.084,0.151 0.045,0.015 0.308,0.087 0.583,0.162 0.275,0.075 1.137,0.396 1.917,0.713 0.779,0.317 1.716,0.609 2.083,0.647 0.367,0.039 0.929,0.117 1.25,0.174 0.321,0.057 0.808,0.125 1.083,0.151 0.275,0.027 1.175,0.21 2,0.407 0.825,0.197 1.65,0.385 1.834,0.418 0.183,0.032 0.521,0.103 0.75,0.157 0.437,0.104 2.888,0.103 4.166,0 0.617,-0.05 6.321,-0.078 7.834,-0.039 0.229,0.006 0.754,-0.036 1.166,-0.094 0.413,-0.058 1.144,-0.144 1.625,-0.191 0.481,-0.047 1.315,-0.234 1.853,-0.415 0.749,-0.252 1.107,-0.293 1.522,-0.174 0.671,0.192 0.994,0.034 2.209,-1.084 0.498,-0.458 1.458,-1.321 2.132,-1.916 0.675,-0.596 1.654,-1.518 2.176,-2.049 l 0.948,-0.965 -0.003,-1.118 c -0.003,-1.297 0.111,-2.208 0.332,-2.644 0.193,-0.382 0.76,-2.718 0.742,-3.058 -0.007,-0.137 0.059,-0.587 0.147,-1 0.149,-0.695 -0.003,-3.715 -0.231,-4.583 -0.048,-0.183 -0.142,-0.558 -0.209,-0.833 -0.067,-0.275 -0.176,-0.575 -0.241,-0.667 -0.066,-0.092 -0.222,-0.523 -0.347,-0.958 -0.125,-0.436 -0.286,-0.792 -0.358,-0.792 -0.071,0 -0.13,-0.133 -0.13,-0.295 0,-0.163 -0.244,-0.674 -0.542,-1.136 -0.298,-0.462 -0.675,-1.1 -0.839,-1.417 -0.164,-0.317 -0.52,-0.815 -0.792,-1.105 -0.271,-0.291 -0.494,-0.57 -0.494,-0.619 0,-0.093 -2.231,-2.472 -2.643,-2.82 -0.125,-0.105 -0.522,-0.473 -0.882,-0.816 -0.36,-0.344 -0.714,-0.625 -0.787,-0.625 -0.073,0 -0.351,-0.231 -0.618,-0.514 -0.268,-0.282 -0.618,-0.636 -0.778,-0.787 -0.724,-0.679 0.012,-1.44 1.542,-1.594 1,-0.1 3.224,-0.928 4.492,-1.671 0.564,-0.331 1.082,-0.601 1.152,-0.601 0.069,0 0.272,-0.131 0.449,-0.292 0.178,-0.16 0.765,-0.591 1.305,-0.958 0.539,-0.367 1.233,-0.967 1.542,-1.333 1.433,-1.704 1.861,-2.324 2.221,-3.212 0.213,-0.525 0.534,-1.287 0.714,-1.694 0.18,-0.406 0.36,-0.931 0.399,-1.166 0.356,-2.131 0.396,-5.523 0.078,-6.561 -0.343,-1.117 -0.582,-2.052 -0.646,-2.534 -0.037,-0.275 -0.126,-0.575 -0.196,-0.666 -0.071,-0.092 -0.337,-0.72 -0.592,-1.396 -1.022,-2.713 -4.624,-7.103 -6.781,-8.266 -0.488,-0.264 -0.925,-0.529 -0.971,-0.59 -0.046,-0.061 -0.458,-0.327 -0.916,-0.591 -0.459,-0.264 -0.927,-0.57 -1.041,-0.681 -0.257,-0.249 -3.275,-1.727 -3.526,-1.727 -0.101,0 -0.183,-0.075 -0.183,-0.166 0,-0.092 -0.094,-0.168 -0.209,-0.169 -0.114,-10e-4 -0.651,-0.227 -1.192,-0.501 -0.542,-0.275 -1.329,-0.605 -1.75,-0.734 -0.421,-0.129 -1.511,-0.468 -2.421,-0.752 -0.91,-0.284 -1.848,-0.552 -2.083,-0.596 -0.5,-0.091 -1.058,-0.216 -1.47,-0.327 -0.161,-0.044 -0.959,-0.234 -1.774,-0.423 -0.816,-0.189 -1.678,-0.478 -1.917,-0.644 -0.239,-0.165 -0.547,-0.35 -0.684,-0.412 -0.138,-0.062 -0.493,-0.2590002 -0.79,-0.4390002 -0.477,-0.289 -0.701,-0.313 -1.897,-0.197 -1.242,0.12 -2.375,-0.008 -2.897,-0.327 -0.147,-0.09 -1.027,-0.299 -1.75,-0.415 -0.274,-0.045 -0.814,-0.162 -1.583,-0.344 -0.275,-0.065 -0.538,-0.124 -0.583,-0.13 -0.046,-0.007 -0.178,-0.072 -0.292,-0.145 -0.115,-0.073 -0.678,-0.169 -1.25,-0.214 -0.573,-0.045 -1.267,-0.148 -1.542,-0.228 -0.275,-0.08 -1.137,-0.192 -1.916,-0.249 -3.471,-0.254 -4.226,-0.39 -5.566,-1.003 -0.829,-0.379 -2.276,-1.426 -3.072,-2.222 -0.155,-0.156 -0.619,-0.385 -1.031,-0.509 -0.411,-0.125 -1.098,-0.367 -1.527,-0.539 -0.428,-0.172 -0.953,-0.345 -1.166,-0.385 -0.214,-0.039 -0.388,-0.084 -0.388,-0.099 0,-0.126 -1.761,-0.087 -1.89,0.042 m 15.64,11.0110002 c 0.453,0.141 1.639,0.246 3,0.266 2.336,0.035 3.27,0.224 3.418,0.69 0.082,0.258 0.49,0.522 1.104,0.716 0.43,0.135 0.407,2.68 -0.04,4.278 -0.192,0.687 -0.384,1.512 -0.426,1.833 -0.042,0.321 -0.139,0.733 -0.214,0.917 -0.112,0.271 -0.409,1.328 -1.124,4 -0.024,0.091 -0.12,0.541 -0.213,1 -0.176,0.867 -0.522,1.817 -0.971,2.661 -0.931,1.752 0.322,5.456 1.613,4.766 0.148,-0.08 0.307,-0.141 0.353,-0.136 0.201,0.019 0.833,-0.241 0.836,-0.344 10e-4,-0.063 0.235,-0.376 0.519,-0.697 0.284,-0.321 0.693,-0.959 0.91,-1.417 0.217,-0.458 0.771,-1.396 1.231,-2.083 0.46,-0.688 0.907,-1.412 0.993,-1.609 0.086,-0.197 0.23,-0.404 0.319,-0.459 0.132,-0.082 1.435,-1.972 3.722,-5.398 0.154,-0.231 0.701,-0.84 1.214,-1.352 0.514,-0.513 1.191,-1.23 1.506,-1.593 l 0.571,-0.661 0.499,0.369 c 0.275,0.203 0.562,0.369 0.639,0.369 0.077,0 0.286,0.115 0.465,0.256 0.605,0.474 2.104,1.411 2.257,1.411 0.084,0 0.152,0.075 0.152,0.167 0,0.091 0.098,0.166 0.219,0.166 0.12,0 0.364,0.136 0.541,0.301 0.382,0.355 2.38,1.696 2.543,1.707 0.063,0.004 0.264,0.197 0.447,0.428 0.183,0.232 0.572,0.697 0.864,1.034 0.399,0.461 0.528,0.768 0.522,1.238 -0.009,0.679 0.194,1.065 1.031,1.959 0.939,1.003 1.296,1.558 1.501,2.333 0.202,0.767 0.72,1.994 1.407,3.338 0.698,1.365 0.14,3.209 -1.557,5.146 -0.193,0.22 -0.351,0.506 -0.351,0.635 0,0.129 -0.075,0.188 -0.167,0.131 -0.092,-0.056 -0.167,-0.032 -0.167,0.055 0,0.087 -0.506,0.295 -1.125,0.461 -0.618,0.167 -1.274,0.442 -1.457,0.611 -0.188,0.174 -0.473,0.271 -0.655,0.223 -0.177,-0.046 -1.416,0.173 -2.753,0.487 -2.33,0.547 -8.279,0.782 -8.972,0.353 -0.08,-0.049 -0.806,-0.132 -1.612,-0.184 -0.807,-0.052 -1.534,-0.136 -1.616,-0.187 -0.082,-0.05 -0.354,-0.129 -0.604,-0.174 -0.251,-0.046 -1.056,-0.194 -1.789,-0.329 -4.57,-0.843 -4.691,-0.858 -5.667,-0.732 -0.183,0.024 -0.974,-0.055 -1.758,-0.174 -1.257,-0.191 -1.489,-0.186 -1.957,0.048 -0.292,0.146 -0.757,0.315 -1.033,0.375 -0.276,0.061 -0.502,0.176 -0.502,0.256 0,0.219 -1.107,0.393 -2.377,0.374 -1.15,-0.017 -1.533,0.197 -1.335,0.749 0.117,0.327 0.967,0.705 1.584,0.705 1.274,0 1.408,0.437 0.62,2.021 -0.074,0.149 -0.154,1.045 -0.178,1.992 -0.035,1.435 -0.185,2.572 -0.721,5.487 -0.026,0.137 -0.086,0.362 -0.135,0.5 -0.27,0.763 -0.791,2.533 -0.791,2.687 0,0.098 -0.104,0.416 -0.23,0.704 -0.709,1.617 -0.72,3.56 -0.029,4.925 0.226,0.447 0.447,1.214 0.491,1.706 0.16,1.798 0.552,2.645 1.223,2.645 0.495,0 1.328,-0.714 1.542,-1.321 0.501,-1.422 2.346,-5.142 2.949,-5.945 0.213,-0.284 0.387,-0.568 0.387,-0.632 0,-0.064 0.15,-0.277 0.333,-0.473 0.183,-0.196 0.6,-0.906 0.927,-1.577 0.327,-0.67 0.665,-1.219 0.751,-1.219 0.086,0 0.156,-0.071 0.156,-0.158 0,-0.735 2.03,-4.175 2.464,-4.175 0.111,0 0.203,-0.067 0.203,-0.149 0,-0.136 0.371,-0.27 1.25,-0.451 0.761,-0.158 4.329,-0.187 4.811,-0.04 0.287,0.087 0.71,0.194 0.939,0.237 0.229,0.043 0.604,0.151 0.833,0.24 0.229,0.09 0.754,0.233 1.167,0.319 0.412,0.086 1.087,0.243 1.5,0.349 0.412,0.106 0.825,0.209 0.916,0.23 0.551,0.124 1.917,0.697 1.917,0.804 0,0.07 0.082,0.127 0.183,0.127 0.255,0 1.378,0.534 1.503,0.715 0.112,0.163 0.355,0.313 1.587,0.978 1.975,1.066 6.015,5.768 6.319,7.352 0.574,3.003 0.629,3.671 0.648,7.872 0.01,2.181 -0.197,3.111 -0.816,3.663 -0.106,0.093 -0.423,0.382 -0.705,0.641 -0.331,0.304 -0.742,0.492 -1.158,0.531 -1.867,0.174 -3.998,1.093 -3.803,1.639 0.082,0.229 -0.964,0.739 -1.771,0.865 -0.314,0.048 -0.833,0.137 -1.154,0.196 -1.428,0.263 -4.666,-0.05 -4.666,-0.451 0,-0.079 0.693,-0.1 1.541,-0.048 0.848,0.051 2.202,0.101 3.008,0.111 l 1.465,0.017 0.66,-0.714 c 0.769,-0.833 0.772,-0.854 0.293,-1.812 -0.357,-0.715 -0.381,-0.73 -1.041,-0.646 -3.595,0.456 -10.921,0.665 -12.502,0.356 -0.729,-0.143 -1.569,-0.217 -3.924,-0.345 -2.374,-0.13 -2.741,-0.206 -4.43,-0.925 -0.854,-0.364 -1.657,-0.661 -1.784,-0.661 -0.126,0 -0.895,-0.337 -1.709,-0.749 -0.813,-0.411 -1.726,-0.829 -2.028,-0.929 -0.302,-0.1 -0.549,-0.245 -0.549,-0.322 0,-0.078 -0.282,-0.233 -0.625,-0.344 -0.344,-0.112 -0.685,-0.305 -0.759,-0.43 -0.073,-0.124 -0.21,-0.226 -0.303,-0.226 -0.094,0 -0.283,-0.113 -0.42,-0.25 -0.559,-0.559 -1.46,0.503 -1.06,1.249 0.149,0.279 0.121,0.288 -0.357,0.11 -0.843,-0.313 -1.888,-1.351 -3.455,-3.432 -2.678,-3.557 -3.43,-4.393 -4.429,-4.915 -0.509,-0.267 -0.926,-0.547 -0.926,-0.623 0,-0.077 -0.112,-0.139 -0.25,-0.139 -0.346,0 -0.314,-0.325 0.042,-0.432 0.554,-0.166 1.959,-0.958 2.092,-1.18 0.073,-0.122 0.242,-0.222 0.375,-0.222 0.133,0 0.241,-0.112 0.241,-0.25 0,-0.137 0.06,-0.25 0.132,-0.25 0.221,0 1.368,-1.151 1.369,-1.374 10e-4,-0.115 0.12,-0.434 0.264,-0.709 1,-1.9 0.976,-3.944 -0.075,-6.32 -0.196,-0.443 -0.356,-0.836 -0.356,-0.872 0,-0.121 0.807,-0.376 1.45,-0.457 0.858,-0.11 2.586,-0.725 2.747,-0.979 0.198,-0.311 0.162,-0.622 -0.072,-0.623 -0.115,-10e-4 -0.434,-0.121 -0.709,-0.267 -0.644,-0.342 -2.026,-0.768 -2.666,-0.821 -0.275,-0.023 -0.95,-0.12 -1.5,-0.216 -0.55,-0.096 -1.338,-0.187 -1.75,-0.202 -2.06,-0.076 -3.699,-0.052 -4.792,0.071 -1.429,0.16 -1.488,0.084 -0.375,-0.481 0.458,-0.232 0.833,-0.488 0.833,-0.57 0,-0.081 0.207,-0.221 0.459,-0.312 0.252,-0.091 0.611,-0.304 0.798,-0.475 0.187,-0.17 0.412,-0.328 0.5,-0.35 0.088,-0.022 0.598,-0.194 1.132,-0.382 0.918,-0.322 3.697,-0.5 4.082,-0.262 0.075,0.046 0.343,0.121 0.595,0.167 0.832,0.151 1.676,0.479 2.184,0.849 1.659,1.207 4.084,1.305 4.084,0.164 0,-0.226 -0.075,-0.412 -0.167,-0.412 -0.092,0 -0.167,-0.113 -0.167,-0.25 0,-0.138 -0.078,-0.25 -0.173,-0.25 -0.393,0 -0.844,-0.623 -0.743,-1.026 0.111,-0.442 -0.235,-0.65 -2.215,-1.331 -2.047,-0.705 -3.465,-1.373 -4.634,-2.186 -1.134,-0.789 -1.451,-1.263 -0.716,-1.07 0.173,0.045 0.354,0.017 0.403,-0.062 0.049,-0.079 0.199,-0.101 0.334,-0.05 0.135,0.052 0.545,-0.026 0.911,-0.172 0.367,-0.147 0.667,-0.226 0.667,-0.176 0,0.051 0.225,-0.041 0.5,-0.204 0.275,-0.162 0.5,-0.345 0.5,-0.405 0,-0.061 0.227,-0.205 0.504,-0.32 0.277,-0.115 0.664,-0.443 0.86,-0.728 0.73,-1.068 2.332,-2.664 3.136,-3.124 0.32,-0.184 0.823,-0.649 1.116,-1.032 0.293,-0.384 0.752,-0.935 1.02,-1.226 1.652,-1.792 -1.066,-2.625 -3.977,-1.219 -0.251,0.121 -3.155,-0.746 -3.326,-0.993 -0.046,-0.067 -0.796,-0.439 -1.667,-0.828 -0.871,-0.39 -1.733,-0.777 -1.916,-0.863 -0.49,-0.227 -3.105,-1.163 -3.545,-1.268 l -0.377,-0.09 0.362,-0.314 c 0.566,-0.491 1.572,-0.692 3.56,-0.712 1.008,-0.01 1.87,-0.056 1.916,-0.103 0.046,-0.046 0.395,-0.286 0.775,-0.533 1.665,-1.078 2.818,-3.592 2.33,-5.077 -0.065,-0.199 -0.15,-0.525 -0.189,-0.726 -0.038,-0.2 -0.243,-0.6 -0.455,-0.888 -0.926,-1.262 -1.078,-2.141 -0.294,-1.697 0.907,0.514 1.448,0.698 2.167,0.738 0.412,0.022 0.997,0.064 1.299,0.093 0.78,0.075 1.902,-0.225 2.227,-0.594 0.153,-0.173 0.355,-0.314 0.45,-0.314 0.096,0 0.234,-0.105 0.307,-0.234 0.263,-0.462 5.268,-0.498 6.717,-0.049 m 64.356,24.741 c -0.29,0.861 -2.154,6.15 -3.187,9.042 -0.344,0.962 -0.902,2.538 -1.241,3.5 -0.583,1.66 -0.963,2.739 -2.365,6.708 -0.332,0.94 -0.827,2.346 -1.1,3.125 -0.274,0.779 -0.562,1.567 -0.64,1.75 -0.078,0.184 -0.337,0.934 -0.576,1.667 -0.239,0.733 -0.502,1.483 -0.585,1.667 -0.212,0.469 -0.829,2.295 -0.829,2.452 0,0.204 17.53,0.16 18.814,-0.047 7.09,-1.143 10.523,-3.614 12.604,-9.072 1.095,-2.874 0.426,-5.545 -1.669,-6.659 -0.669,-0.355 -0.742,-0.439 -0.474,-0.547 1.129,-0.455 3.712,-2.7 4.587,-3.986 0.546,-0.804 1.305,-2.366 1.305,-2.687 0,-0.167 0.086,-0.391 0.192,-0.496 0.336,-0.337 0.265,-3.03 -0.098,-3.708 -1.525,-2.851 -3.871,-3.334 -16.188,-3.334 h -8.339 l -0.211,0.625 m 33.058,-0.25 c -0.06,0.207 -0.321,0.975 -0.58,1.709 -0.259,0.733 -0.748,2.12 -1.086,3.083 -0.338,0.962 -0.675,1.9 -0.748,2.083 -0.275,0.691 -1.168,3.196 -1.397,3.917 -0.131,0.413 -0.59,1.725 -1.02,2.917 -2.715,7.519 -3.118,10.768 -1.676,13.506 1.449,2.752 5.654,4.127 11.759,3.847 6.749,-0.31 11.952,-2.847 14.917,-7.274 0.275,-0.41 0.584,-0.835 0.686,-0.944 0.28,-0.298 1.654,-3.007 2.055,-4.052 0.193,-0.504 0.418,-1.067 0.499,-1.25 0.082,-0.183 0.35,-0.933 0.596,-1.667 0.247,-0.733 0.508,-1.483 0.581,-1.666 0.141,-0.355 1.066,-2.955 1.838,-5.167 1.155,-3.313 1.706,-4.858 1.84,-5.167 0.08,-0.183 0.342,-0.933 0.583,-1.666 0.241,-0.734 0.543,-1.57 0.671,-1.859 0.129,-0.289 0.234,-0.57 0.234,-0.625 0,-0.055 -2.306,-0.099 -5.125,-0.099 h -5.125 l -0.444,1.292 c -0.809,2.351 -2.087,5.95 -2.281,6.427 -0.105,0.258 -0.191,0.516 -0.191,0.574 0,0.059 -0.219,0.71 -0.485,1.448 -0.267,0.738 -0.762,2.129 -1.1,3.092 -0.338,0.962 -0.675,1.9 -0.749,2.083 -0.074,0.183 -0.3,0.821 -0.502,1.417 -0.203,0.595 -0.465,1.308 -0.581,1.583 -0.117,0.275 -0.267,0.688 -0.332,0.917 -0.846,2.956 -3.28,4.892 -6.168,4.907 -3.26,0.018 -4.103,-1.267 -3.013,-4.592 0.621,-1.898 1.928,-5.693 2.088,-6.065 0.078,-0.184 0.307,-0.821 0.508,-1.417 0.202,-0.596 0.432,-1.233 0.512,-1.417 0.08,-0.183 0.341,-0.933 0.58,-1.666 0.239,-0.734 0.501,-1.484 0.583,-1.667 0.156,-0.353 0.872,-2.383 1.233,-3.5 0.118,-0.367 0.413,-1.182 0.654,-1.812 0.241,-0.629 0.438,-1.248 0.438,-1.375 0,-0.19 -0.869,-0.23 -5.072,-0.23 h -5.072 l -0.108,0.375 m 34.942,1.167 c -0.645,1.803 -1.57,4.422 -2.104,5.958 -0.969,2.787 -1.795,5.114 -1.925,5.417 -0.078,0.183 -0.478,1.308 -0.889,2.5 -0.41,1.192 -1.097,3.142 -1.525,4.333 -0.429,1.192 -0.886,2.504 -1.017,2.917 -0.13,0.413 -0.458,1.35 -0.727,2.083 -1.09,2.969 -2.003,5.588 -2.003,5.748 0,0.301 17.088,0.222 19.179,-0.09 5.702,-0.848 9.414,-3.138 11.376,-7.016 2.017,-3.987 1.712,-7.295 -0.795,-8.628 l -0.755,-0.401 0.789,-0.458 c 5.071,-2.94 7.442,-9.128 4.511,-11.768 -2.038,-1.835 -4.183,-2.137 -15.214,-2.137 h -8.35 l -0.551,1.542 m 33.408,-0.75 c -0.203,0.643 -1.052,3.07 -1.473,4.208 -0.051,0.138 -0.367,1.038 -0.702,2 -0.335,0.963 -0.877,2.5 -1.203,3.417 -0.789,2.219 -1.406,3.967 -2.145,6.083 -0.336,0.963 -0.894,2.538 -1.239,3.5 -0.346,0.963 -0.832,2.35 -1.08,3.084 -0.248,0.733 -0.521,1.483 -0.606,1.666 -0.085,0.184 -0.222,0.559 -0.305,0.834 -0.083,0.275 -0.494,1.466 -0.914,2.648 -0.42,1.182 -0.764,2.213 -0.764,2.292 0,0.079 2.277,0.143 5.061,0.143 h 5.061 l 0.453,-1.292 c 0.25,-0.71 0.516,-1.441 0.592,-1.625 0.076,-0.183 0.339,-0.933 0.586,-1.666 0.246,-0.734 0.508,-1.484 0.581,-1.667 0.143,-0.358 0.937,-2.595 1.924,-5.417 1.113,-3.181 1.608,-4.579 1.742,-4.916 0.073,-0.184 0.334,-0.934 0.58,-1.667 0.247,-0.733 0.509,-1.483 0.584,-1.667 0.135,-0.332 0.589,-1.612 1.744,-4.916 0.337,-0.963 0.868,-2.463 1.181,-3.334 0.313,-0.871 0.616,-1.789 0.675,-2.041 l 0.105,-0.459 h -5.094 -5.095 l -0.249,0.792 m -87.956,6.717 c 1.314,0.303 1.511,0.952 0.752,2.474 -0.869,1.744 -2.021,2.184 -5.724,2.184 h -2.313 l 0.142,-0.458 c 0.079,-0.252 0.448,-1.32 0.822,-2.372 0.374,-1.052 0.679,-1.933 0.679,-1.958 0,-0.129 5.021,-0.013 5.642,0.13 m 68.325,-0.022 c 2.125,0.411 1,3.682 -1.524,4.432 -0.701,0.208 -5.778,0.389 -5.775,0.206 0.001,-0.064 0.761,-2.152 0.975,-2.677 0.105,-0.258 0.191,-0.518 0.191,-0.578 0,-0.06 0.122,-0.43 0.272,-0.822 l 0.273,-0.714 2.436,0.007 c 1.339,0.004 2.758,0.07 3.152,0.146 m -71.216,10.771 c 2.117,0.615 1.472,3.465 -1.048,4.629 -0.82,0.379 -7.206,0.675 -7.2,0.334 0.002,-0.149 0.882,-2.718 1.02,-2.978 0.046,-0.088 0.229,-0.628 0.406,-1.201 l 0.321,-1.042 h 2.808 c 2.038,0 3.05,0.071 3.693,0.258 m 68.665,0.159 c 1.627,0.814 0.832,3.45 -1.339,4.443 -0.858,0.392 -7.249,0.711 -7.24,0.361 0.006,-0.22 1.458,-4.404 1.566,-4.512 0.053,-0.054 0.097,-0.24 0.097,-0.413 0,-0.486 5.91,-0.383 6.916,0.121 m -137.9,6.22 c -0.1,0.188 -0.182,0.619 -0.182,0.957 0,0.44 -0.169,0.851 -0.588,1.434 -0.71,0.989 -0.955,2.199 -0.511,2.524 0.241,0.176 0.272,0.448 0.211,1.879 -0.115,2.72 1.427,3.351 1.618,0.663 0.127,-1.774 0.559,-2.755 1.164,-2.644 1.499,0.274 3.592,0.065 4.147,-0.416 0.464,-0.4 0.359,-1.867 -0.133,-1.867 -0.531,0 -0.329,-0.273 0.227,-0.306 1.323,-0.077 1.121,2.583 -0.215,2.831 -0.83,0.154 -0.65,1.821 0.21,1.945 0.337,0.048 0.37,0.146 0.37,1.1 0,1.453 0.44,2.597 0.999,2.597 0.28,0 0.689,-1.401 0.647,-2.21 -0.084,-1.593 0.2,-1.856 2.187,-2.029 1.486,-0.13 1.5,-0.132 1.5,-0.289 0,-0.076 0.102,-0.139 0.226,-0.139 0.124,0 0.443,-0.205 0.708,-0.455 0.265,-0.25 0.702,-0.574 0.97,-0.721 0.268,-0.147 0.611,-0.498 0.763,-0.782 l 0.277,-0.516 0.22,1.107 c 0.22,1.104 0.534,1.929 1.676,4.401 0.425,0.92 1.407,0.732 1.943,-0.372 0.768,-1.585 1.214,-2.701 1.273,-3.184 0.038,-0.309 0.195,-0.899 0.348,-1.311 0.43,-1.154 0.487,-2.075 0.184,-2.988 -0.458,-1.376 -1.587,-1.218 -1.589,0.222 0,0.6 -0.289,1.454 -1.216,3.594 l -0.25,0.578 -0.192,-0.745 c -0.777,-3.014 -1.123,-3.482 -2.29,-3.098 -0.282,0.092 -0.428,0.025 -0.635,-0.291 -0.295,-0.45 -2.186,-1.295 -2.693,-1.204 -1.386,0.25 -1.948,0.266 -2.491,0.069 -0.57,-0.206 -0.617,-0.195 -0.998,0.249 l -0.401,0.466 v -0.406 c 0,-0.743 -0.282,-0.808 -3.896,-0.899 -3.306,-0.083 -3.41,-0.076 -3.588,0.256 m 10.815,3.351 c -0.012,0.445 -2.027,1.203 -2.247,0.846 -0.096,-0.155 0.079,-0.707 0.263,-0.834 0.171,-0.117 1.987,-0.128 1.984,-0.012"
           stroke="none"
           fill="#0ca4dc"
           fill-rule="evenodd"
           style="fill:#545454;fill-opacity:1" />
        <path
           id="path1757"
           d="m 315.818,37.100274 c -8.67,0.661 -16.793,7.394 -19.803,16.413 -2.741,8.216 -0.658,13.71 5.818,15.346 2.514,0.635 7.845,0.293 9.491,-0.609 0.143,-0.078 0.623,-0.3 1.067,-0.492 0.978,-0.425 2.388,-1.26 2.901,-1.718 0.459,-0.41 0.478,-0.242 0.125,1.113 -0.412,1.579 -0.676,1.457 3.031,1.406 l 3.282,-0.046 0.388,-1 c 0.214,-0.55 0.69,-1.9 1.059,-3 0.368,-1.1 0.735,-2.15 0.814,-2.333 0.078,-0.183 0.308,-0.821 0.509,-1.417 0.201,-0.596 0.431,-1.233 0.511,-1.416 0.147,-0.34 0.763,-2.093 1.318,-3.75 0.169,-0.504 0.539,-1.579 0.822,-2.388 0.284,-0.81 0.516,-1.503 0.516,-1.542 0,-0.039 -3.1,-0.07 -6.889,-0.07 h -6.888 l -0.179,0.375 c -0.098,0.206 -0.441,1.125 -0.763,2.041 -0.322,0.917 -0.779,2.215 -1.017,2.885 -0.237,0.67 -0.431,1.251 -0.431,1.292 0,0.04 0.938,0.073 2.083,0.073 2.263,0 2.308,0.022 1.616,0.755 -3.078,3.261 -8.775,3.429 -9.655,0.284 -0.203,-0.724 -0.138,-3.078 0.107,-3.884 0.474,-1.56 0.865,-2.751 1.007,-3.071 0.774,-1.739 1.372,-2.884 1.759,-3.364 0.091,-0.114 0.458,-0.604 0.814,-1.089 3.013,-4.102 9.061,-4.412 9.516,-0.487 l 0.119,1.023 h 4.794 4.795 l 0.106,-0.773 c 0.84,-6.133 -2.432,-10.018 -8.894,-10.561 -1.055,-0.088 -1.992,-0.151 -2.084,-0.139 -0.091,0.012 -0.886,0.076 -1.765,0.143 m -85.942,1.038 c -0.099,0.207 -0.382,0.975 -0.629,1.709 -0.246,0.733 -0.509,1.483 -0.584,1.666 -0.074,0.184 -0.21,0.559 -0.301,0.834 -0.092,0.275 -0.554,1.587 -1.027,2.916 -0.474,1.33 -0.961,2.717 -1.082,3.084 -0.121,0.366 -0.572,1.641 -1.001,2.833 -0.429,1.192 -1.028,2.879 -1.332,3.75 -0.303,0.871 -0.938,2.671 -1.41,4 -0.472,1.329 -1.049,2.979 -1.281,3.667 -0.232,0.687 -0.529,1.486 -0.659,1.775 -0.13,0.289 -0.237,0.59 -0.237,0.67 0,0.08 -0.215,0.706 -0.477,1.392 -0.263,0.685 -0.531,1.415 -0.595,1.621 l -0.117,0.375 h 5.139 5.139 l 0.632,-1.875 c 0.348,-1.031 0.699,-2.025 0.782,-2.208 0.082,-0.184 0.346,-0.934 0.586,-1.667 0.241,-0.733 0.544,-1.57 0.674,-1.859 0.131,-0.288 0.237,-0.587 0.237,-0.663 0,-0.076 0.194,-0.645 0.432,-1.266 l 0.431,-1.129 h 5.452 5.453 l 0.297,-0.875 c 0.163,-0.481 0.358,-1.025 0.432,-1.208 0.075,-0.183 0.337,-0.933 0.584,-1.667 0.246,-0.733 0.51,-1.483 0.587,-1.666 0.076,-0.184 0.212,-0.559 0.302,-0.834 0.089,-0.275 0.216,-0.631 0.281,-0.791 0.111,-0.275 -0.21,-0.292 -5.385,-0.292 h -5.504 l 0.384,-1.042 c 0.211,-0.573 0.643,-1.754 0.961,-2.625 l 0.578,-1.583 6.88,-0.083 6.88,-0.084 0.498,-1.416 c 0.273,-0.78 0.784,-2.205 1.135,-3.167 0.352,-0.963 0.688,-1.956 0.749,-2.208 l 0.109,-0.459 h -11.906 -11.907 l -0.18,0.375 m 28.385,-0.166 c -0.034,0.114 -0.332,0.964 -0.662,1.888 -0.329,0.924 -0.599,1.738 -0.599,1.808 0,0.071 -0.107,0.365 -0.237,0.653 -0.13,0.289 -0.427,1.088 -0.659,1.776 -0.232,0.687 -0.808,2.337 -1.28,3.666 -0.472,1.33 -1.069,3.017 -1.328,3.75 -0.258,0.734 -0.858,2.421 -1.332,3.75 -0.474,1.33 -0.961,2.717 -1.083,3.084 -0.122,0.366 -0.596,1.716 -1.053,3 -2.014,5.651 -2.361,6.661 -2.361,6.866 0,0.176 2.226,0.217 11.895,0.217 h 11.896 l 0.594,-1.625 c 1.31,-3.587 1.74,-4.812 1.845,-5.25 l 0.109,-0.458 h -6.822 -6.822 l 0.58,-1.625 c 0.319,-0.894 0.803,-2.3 1.077,-3.125 0.273,-0.825 0.566,-1.65 0.65,-1.834 0.158,-0.343 0.445,-1.151 1.835,-5.166 0.444,-1.284 1.196,-3.421 1.67,-4.75 0.475,-1.33 0.96,-2.717 1.078,-3.084 0.119,-0.366 0.448,-1.29 0.732,-2.053 0.284,-0.762 0.516,-1.456 0.516,-1.541 0,-0.256 -10.163,-0.203 -10.239,0.053 m 28.218,0.25 c -0.098,0.252 -0.426,1.17 -0.728,2.041 -0.302,0.871 -0.935,2.671 -1.408,4 -0.472,1.33 -1.047,2.98 -1.278,3.667 -0.23,0.688 -0.487,1.4 -0.57,1.583 -0.083,0.184 -0.346,0.896 -0.586,1.584 -0.239,0.687 -0.685,1.962 -0.99,2.833 -0.306,0.871 -0.903,2.596 -1.328,3.833 -0.425,1.238 -0.837,2.4 -0.916,2.584 -0.078,0.183 -0.307,0.82 -0.508,1.416 -0.202,0.596 -0.432,1.234 -0.512,1.417 -0.08,0.183 -0.341,0.933 -0.58,1.667 -0.239,0.733 -0.498,1.483 -0.575,1.666 -0.076,0.184 -0.213,0.559 -0.303,0.834 -0.089,0.275 -0.216,0.631 -0.281,0.791 -0.111,0.274 0.191,0.292 4.987,0.292 h 5.105 l 0.18,-0.458 c 0.315,-0.802 1.647,-4.57 2.166,-6.125 0.275,-0.825 0.608,-1.737 0.74,-2.026 0.132,-0.288 0.239,-0.581 0.239,-0.65 0,-0.068 0.273,-0.882 0.606,-1.808 0.333,-0.926 0.828,-2.321 1.1,-3.1 0.273,-0.779 0.555,-1.566 0.629,-1.75 0.073,-0.183 0.297,-0.821 0.499,-1.416 0.201,-0.596 0.43,-1.234 0.508,-1.417 0.079,-0.183 0.339,-0.933 0.578,-1.667 0.239,-0.733 0.502,-1.483 0.585,-1.666 0.155,-0.342 0.782,-2.123 1.321,-3.75 0.167,-0.505 0.612,-1.78 0.989,-2.834 0.376,-1.054 0.685,-1.935 0.685,-1.958 0,-0.023 -2.289,-0.042 -5.087,-0.042 h -5.088 l -0.179,0.459 m 51.491,0.166 c -0.143,0.344 -0.427,1.113 -0.631,1.709 -0.205,0.595 -0.435,1.233 -0.512,1.416 -0.078,0.184 -0.476,1.309 -0.886,2.5 -0.409,1.192 -1.132,3.254 -1.606,4.584 -0.474,1.329 -0.961,2.716 -1.082,3.083 -0.121,0.367 -0.572,1.642 -1.001,2.833 -0.429,1.192 -1.029,2.879 -1.334,3.75 -0.305,0.871 -0.926,2.634 -1.381,3.917 -0.454,1.283 -0.865,2.446 -0.913,2.583 -0.083,0.235 -1.083,3.004 -1.25,3.459 -0.06,0.163 1.024,0.208 5.072,0.208 h 5.149 l 0.627,-1.875 c 0.345,-1.031 0.691,-2.025 0.769,-2.208 0.222,-0.523 1.109,-3.033 1.591,-4.5 0.241,-0.734 0.504,-1.484 0.583,-1.667 0.08,-0.183 0.231,-0.615 0.336,-0.958 l 0.192,-0.625 h 4.627 4.627 l -0.602,1.791 c -0.331,0.986 -0.648,1.867 -0.705,1.959 -0.058,0.091 -0.181,0.429 -0.274,0.75 -0.094,0.32 -0.671,1.97 -1.284,3.666 -0.612,1.696 -1.152,3.215 -1.2,3.375 -0.082,0.274 0.233,0.292 5.02,0.292 4.719,0 5.116,-0.022 5.202,-0.292 0.051,-0.16 0.159,-0.441 0.239,-0.625 0.169,-0.387 0.721,-1.949 1.764,-5 0.408,-1.191 0.806,-2.316 0.884,-2.5 0.079,-0.183 0.308,-0.821 0.509,-1.416 0.201,-0.596 0.432,-1.234 0.513,-1.417 0.08,-0.183 0.478,-1.308 0.882,-2.5 0.405,-1.192 1.089,-3.142 1.52,-4.333 0.431,-1.192 0.919,-2.58 1.085,-3.084 0.166,-0.504 0.655,-1.891 1.086,-3.083 0.432,-1.192 0.919,-2.579 1.083,-3.083 0.165,-0.505 0.494,-1.432 0.732,-2.062 0.238,-0.63 0.432,-1.173 0.432,-1.208 0,-0.035 -2.309,-0.064 -5.132,-0.064 h -5.132 l -0.182,0.625 c -0.1,0.344 -0.536,1.6 -0.969,2.792 -0.432,1.192 -0.921,2.579 -1.086,3.083 -0.166,0.504 -0.53,1.554 -0.809,2.334 l -0.509,1.416 -4.656,0.045 -4.656,0.044 0.581,-1.628 c 0.32,-0.895 0.642,-1.777 0.716,-1.961 0.074,-0.183 0.4,-1.083 0.724,-2 0.324,-0.916 0.819,-2.309 1.1,-3.095 0.281,-0.786 0.51,-1.48 0.51,-1.542 0,-0.062 -2.273,-0.113 -5.051,-0.113 h -5.051 l -0.261,0.625 m 33.815,-0.333 c -0.049,0.16 -0.44,1.267 -0.87,2.458 -1.29,3.572 -1.748,4.93 -1.748,5.18 0,0.199 0.709,0.237 4.411,0.237 4.833,0 4.496,-0.075 4.088,0.917 -0.076,0.183 -0.339,0.933 -0.586,1.666 -0.246,0.734 -0.507,1.484 -0.58,1.667 -0.073,0.183 -0.37,1.008 -0.66,1.833 -0.291,0.825 -0.786,2.203 -1.101,3.061 -0.315,0.859 -0.572,1.635 -0.572,1.725 0,0.09 -0.104,0.4 -0.231,0.689 -0.127,0.289 -0.397,1.013 -0.6,1.609 -0.203,0.595 -0.432,1.233 -0.509,1.416 -0.078,0.184 -0.476,1.309 -0.886,2.5 -0.41,1.192 -1.004,2.898 -1.321,3.792 l -0.576,1.625 h 5.13 5.13 l 0.582,-1.708 c 0.32,-0.94 0.933,-2.684 1.363,-3.875 0.431,-1.192 0.918,-2.58 1.084,-3.084 0.166,-0.504 0.653,-1.891 1.082,-3.083 0.429,-1.192 1.028,-2.879 1.331,-3.75 0.303,-0.871 0.904,-2.558 1.335,-3.75 0.431,-1.192 0.865,-2.41 0.963,-2.708 l 0.179,-0.542 4.513,-0.002 4.514,-0.001 0.386,-1.207 c 0.213,-0.664 0.451,-1.357 0.528,-1.54 0.078,-0.183 0.217,-0.558 0.309,-0.833 0.091,-0.275 0.472,-1.358 0.847,-2.405 0.374,-1.048 0.68,-1.967 0.68,-2.042 0,-0.316 -28.12,-0.161 -28.215,0.155"
           stroke="none"
           fill="#434343"
           fill-rule="evenodd"
           style="fill:#545454;fill-opacity:1" />
      </g>
    </g>
    <path
       style="fill:#545454;fill-opacity:1;stroke:#dfdfdf;stroke-width:0.139955;stroke-opacity:1"
       d="m 244.86285,65.678413 c -0.47481,-0.02044 -0.94363,-0.05507 -1.04184,-0.07694 -0.16714,-0.03722 -0.1762,-0.0506 -0.14181,-0.209334 0.0534,-0.246487 0.87003,-2.61154 2.17241,-6.291591 3.32616,-9.398593 5.51163,-15.591497 6.02652,-17.077227 0.3173,-0.915618 0.68002,-1.918504 0.80602,-2.228631 0.12605,-0.310129 0.2834,-0.745115 0.34974,-0.966636 0.0664,-0.221522 0.31534,-0.958581 0.5533,-1.637911 0.23797,-0.679329 0.4843,-1.388344 0.54742,-1.575589 0.0631,-0.187244 0.15278,-0.360697 0.19924,-0.38545 0.27704,-0.14757 6.07987,-0.261637 8.52719,-0.16762 0.8182,0.03143 1.5284,0.07272 1.57821,0.09173 0.0498,0.01903 0.0906,0.06632 0.0906,0.105106 0,0.08336 -0.27897,0.905551 -0.77393,2.280874 -0.39371,1.094061 -1.53696,4.349818 -3.4603,9.854313 -0.69146,1.978917 -1.37892,3.912189 -1.5277,4.296157 -0.14877,0.38397 -0.54209,1.494892 -0.87405,2.468717 -0.33194,0.973825 -0.79566,2.311117 -1.03049,2.97176 -0.23481,0.660643 -0.42692,1.211125 -0.42692,1.223294 0,0.01212 3.0593,0.02212 6.79845,0.02212 5.46017,0 6.79846,0.01342 6.79846,0.0682 0,0.254894 -0.51651,1.777089 -1.77175,5.221438 l -0.74368,2.040675 -10.89587,0.0048 c -5.99274,0.0027 -11.28437,-0.01185 -11.75918,-0.03232 z"
       id="path3126" />
    <path
       style="fill:#545454;fill-opacity:1;stroke:#dfdfdf;stroke-width:0.139955;stroke-opacity:1"
       d="m 272.40739,65.697517 c -0.47421,-0.0724 -0.4856,-0.07681 -0.4856,-0.187436 0,-0.06072 0.13564,-0.488562 0.30144,-0.950775 0.16579,-0.462215 0.49005,-1.396206 0.72059,-2.075537 0.23055,-0.67933 0.61654,-1.778878 0.85777,-2.44344 0.99874,-2.751427 1.38746,-3.843661 2.11246,-5.935718 1.55791,-4.49549 2.23088,-6.407295 2.49469,-7.087009 0.14902,-0.38397 0.49621,-1.350605 0.77154,-2.14808 0.78025,-2.260008 3.14617,-8.974721 3.32552,-9.438121 l 0.16107,-0.41619 2.0599,5.2e-5 c 3.72302,9.4e-5 8.12994,0.0677 8.12994,0.124724 0,0.02942 -0.26948,0.816895 -0.59883,1.749947 -0.32936,0.933052 -0.87823,2.518098 -1.21971,3.522325 -0.34149,1.004227 -0.77495,2.236687 -0.96326,2.738801 -0.18832,0.502113 -0.57155,1.577495 -0.85163,2.389738 -0.28008,0.812242 -0.76382,2.189697 -1.07497,3.061012 -1.71151,4.792654 -2.42649,6.817106 -2.64576,7.491425 -0.13447,0.413505 -0.34139,0.993487 -0.45984,1.288847 -0.11843,0.295361 -0.50703,1.382825 -0.86348,2.416589 -0.9072,2.630959 -1.77616,5.06949 -2.03323,5.705834 l -0.0922,0.228234 -4.75576,-0.0073 c -2.61567,-0.004 -4.81647,-0.01658 -4.89065,-0.02792 z"
       id="path3202" />
    <path
       style="fill:#545454;fill-opacity:1;stroke:#dfdfdf;stroke-width:0.139955;stroke-opacity:1"
       d="m 215.16008,65.689858 c 0,-0.07059 0.34033,-1.043048 0.71796,-2.051497 0.19356,-0.51688 0.39069,-1.089312 0.43808,-1.272066 0.0474,-0.182755 0.16724,-0.521079 0.26636,-0.751828 0.0992,-0.23075 0.341,-0.878697 0.53754,-1.439882 1.11891,-3.19471 2.97827,-8.472249 3.84048,-10.900671 0.54548,-1.536334 1.57411,-4.448696 2.28588,-6.471918 2.04397,-5.810145 2.52181,-7.147727 2.6715,-7.477999 l 0.13996,-0.308786 h 11.93095 11.93096 l -0.0351,0.201383 c -0.0624,0.357873 -2.38449,6.992257 -2.48096,7.088266 -0.0213,0.02118 -3.12302,0.07525 -6.89274,0.120143 l -6.85406,0.08163 -0.91262,2.497142 c -0.50194,1.373428 -0.92621,2.539432 -0.94282,2.591119 -0.0286,0.08894 0.19513,0.09416 4.16853,0.09745 4.0611,0.0033 6.36339,0.04901 6.55929,0.130051 0.0519,0.02148 0.0942,0.07876 0.0939,0.127294 -2.7e-4,0.04853 -0.15947,0.535302 -0.35383,1.081719 -0.19434,0.546419 -0.60411,1.706381 -0.91059,2.577695 -0.30647,0.871315 -0.70838,2.013039 -0.89314,2.537164 l -0.3359,0.952955 -5.45456,0.01368 -5.45455,0.01368 -0.20768,0.53702 c -0.11428,0.295361 -0.33773,0.923675 -0.49667,1.396251 -0.15895,0.472578 -0.36659,1.052559 -0.46142,1.288848 -0.0949,0.236289 -0.34946,0.949182 -0.56586,1.584208 -0.21639,0.635026 -0.47203,1.360003 -0.56809,1.611059 -0.0961,0.251057 -0.46005,1.29019 -0.80885,2.309185 l -0.63418,1.852718 -5.15892,0.01369 c -2.83741,0.0076 -5.15892,-0.0059 -5.15892,-0.02973 z"
       id="path3241" />
    <path
       style="fill:#545454;fill-opacity:1;stroke:#dfdfdf;stroke-width:0.197926;stroke-opacity:1"
       d="m 299.24403,66.432097 c -1.77559,-0.201646 -3.70857,-0.908335 -4.96625,-1.815639 -3.23596,-2.334467 -4.20112,-6.329221 -2.85572,-11.819595 1.12671,-4.597975 3.59536,-8.860745 7.04028,-12.156902 3.71814,-3.557575 8.09128,-5.678784 12.79901,-6.208209 2.25568,-0.253668 3.78433,-0.224956 5.75784,0.108156 4.61786,0.779443 7.24634,3.386797 7.67501,7.613303 0.0867,0.855127 0.0586,1.720643 -0.096,2.959583 l -0.083,0.664527 h -4.8299 -4.82992 l -0.0476,-0.436689 c -0.1601,-1.467452 -0.53768,-2.233009 -1.36332,-2.764129 -0.60259,-0.387645 -1.07612,-0.526383 -1.96341,-0.575267 -1.28883,-0.07101 -2.62522,0.314028 -3.93804,1.134604 -0.94416,0.590143 -1.60918,1.23625 -2.55311,2.480448 -1.13683,1.498469 -2.06149,3.335319 -2.77233,5.507283 -0.67258,2.05502 -0.68486,2.124483 -0.68676,3.881196 -10e-4,1.491501 0.003,1.526785 0.20348,1.954533 1.12558,2.390367 5.35842,2.494279 8.45847,0.207646 0.60543,-0.446569 1.39452,-1.254921 1.35149,-1.38447 -0.0482,-0.144925 -0.63614,-0.194207 -2.40363,-0.201459 -1.35501,-0.0056 -1.62148,-0.02457 -1.62148,-0.115681 0,-0.209974 1.85482,-5.482444 2.16888,-6.165224 l 0.18813,-0.409003 h 6.90986 c 5.88962,0 6.90984,0.01578 6.90984,0.106905 0,0.111885 -2.17105,6.444483 -2.59312,7.56365 -0.28946,0.767576 -0.91627,2.536726 -1.8028,5.088386 -0.35557,1.023373 -0.83758,2.378381 -1.07116,3.011128 l -0.42467,1.150449 -1.23184,0.05234 c -1.97263,0.0838 -5.11282,0.02228 -5.26445,-0.103135 -0.17503,-0.144765 -0.16004,-0.340136 0.10678,-1.392008 0.12805,-0.504768 0.22246,-0.98596 0.20984,-1.069315 -0.0207,-0.137046 -0.0546,-0.125163 -0.35376,0.124165 -0.57732,0.481203 -1.68716,1.120964 -3.08175,1.776459 -1.47213,0.691926 -2.20701,0.913336 -3.72199,1.121369 -1.03626,0.142294 -4.32976,0.212039 -5.22295,0.110607 z"
       id="path3280" />
    <path
       style="fill:#545454;fill-opacity:1;stroke:#dfdfdf;stroke-width:0.197926;stroke-opacity:1"
       d="m 323.86361,65.695002 c -0.25651,-0.01777 -0.41966,-0.06715 -0.44579,-0.134919 -0.0226,-0.05879 0.22267,-0.834438 0.54519,-1.723666 0.32251,-0.889229 1.14706,-3.20595 1.8323,-5.148271 0.68525,-1.942321 1.62891,-4.608027 2.09705,-5.923793 0.76169,-2.140892 2.7088,-7.673229 4.23658,-12.037449 0.80008,-2.285484 1.74146,-4.868942 1.94829,-5.346764 l 0.17758,-0.410269 4.81193,0.0523 c 2.64655,0.02877 4.92615,0.07244 5.06577,0.09705 0.2243,0.03954 0.24838,0.06646 0.20685,0.231182 -0.079,0.313141 -1.13539,3.304531 -2.37806,6.733795 -0.64893,1.790766 -1.16974,3.261134 -1.15736,3.267482 0.012,0.0064 2.07543,-0.0064 4.58457,-0.02823 3.89895,-0.03399 4.57213,-0.05598 4.63127,-0.151276 0.038,-0.06133 0.35124,-0.915717 0.69596,-1.898651 0.34474,-0.982933 1.04663,-2.983301 1.55977,-4.445264 0.51313,-1.461961 1.0142,-2.914429 1.11349,-3.227706 l 0.1805,-0.569597 5.15056,0.02544 c 2.83282,0.014 5.15984,0.0346 5.17118,0.04581 0.0107,0.01119 -0.15517,0.495305 -0.36996,1.075781 -0.21481,0.580474 -0.57172,1.585132 -0.79317,2.232572 -0.22145,0.647441 -0.71376,2.048646 -1.09403,3.11379 -0.38028,1.065143 -1.05687,2.978983 -1.50353,4.252978 -2.10811,6.012876 -3.04282,8.664388 -3.54731,10.062853 -0.30138,0.835406 -1.06048,2.988477 -1.68689,4.784602 -1.45823,4.181236 -1.729,4.882187 -1.93034,4.997202 -0.11775,0.06727 -1.32042,0.09758 -4.58534,0.115588 -4.29743,0.02369 -5.23045,3.04e-4 -5.45303,-0.136596 -0.0864,-0.05322 0.0621,-0.538784 0.78341,-2.558908 1.94332,-5.442893 3.18166,-8.972174 3.18166,-9.067775 0,-0.04289 -1.79802,-0.07073 -4.56788,-0.07073 h -4.56788 l -0.2333,0.702501 c -0.42595,1.282586 -2.12968,6.154518 -2.51644,7.195889 -0.20942,0.5639 -0.59895,1.683155 -0.86561,2.487235 l -0.48485,1.461961 -4.69428,-0.01405 c -2.58186,-0.0077 -4.87634,-0.02666 -5.09886,-0.04207 z"
       id="path3319" />
    <path
       style="fill:#545454;fill-opacity:1;stroke:#dfdfdf;stroke-width:0.197926;stroke-opacity:1"
       d="m 366.06692,65.618757 c 0.10116,-0.340537 2.48238,-7.092788 3.07344,-8.715343 0.36519,-1.002488 0.76723,-2.130287 0.89343,-2.50622 0.21288,-0.634187 2.80304,-7.968895 3.49065,-9.884686 0.34356,-0.95721 0.35729,-1.04864 0.1705,-1.135029 -0.0735,-0.03396 -1.95341,-0.08125 -4.1777,-0.10508 -4.39445,-0.04708 -4.43095,-0.05078 -4.34205,-0.441028 0.0763,-0.334658 0.9655,-2.929438 1.8139,-5.292816 l 0.79013,-2.201054 0.25856,-0.05405 c 0.14222,-0.02973 1.71791,-0.09581 3.50154,-0.146861 3.71599,-0.106345 23.36875,-0.140803 24.06349,-0.04219 0.4332,0.06149 0.44572,0.06973 0.40598,0.267507 -0.0225,0.112232 -0.40949,1.245654 -0.85986,2.518717 -0.45036,1.273063 -1.05136,2.998174 -1.33556,3.83358 l -0.51671,1.518921 -4.5098,0.01959 c -3.50953,0.01525 -4.51712,0.04051 -4.54278,0.113923 -0.0182,0.05189 -1.09264,3.084707 -2.3878,6.73961 -2.75891,7.785563 -3.65172,10.317204 -4.71383,13.366507 l -0.78037,2.240407 -5.16741,0.01953 c -4.8986,0.0185 -5.16535,0.01252 -5.12775,-0.113923 z"
       id="path3358" />
  </g>
</svg>
